<svg width="92" height="28" viewBox="0 0 92 28" fill="none" xmlns="http://www.w3.org/2000/svg">
<path fill-rule="evenodd" clip-rule="evenodd" d="M56.8281 21.8407C51.5059 25.6614 43.7917 27.7 37.1499 27.7C27.8371 27.7 19.4531 24.3451 13.1103 18.7654C12.612 18.3266 13.0586 17.7287 13.6566 18.0704C20.5017 21.9493 28.9653 24.2829 37.708 24.2829C43.6043 24.2829 50.0907 23.0948 56.0547 20.6292C56.9557 20.2564 57.7091 21.2039 56.8281 21.8407Z" fill="#080C12"/>
<path fill-rule="evenodd" clip-rule="evenodd" d="M59.0412 19.3752C58.3635 18.5288 54.5442 18.9753 52.83 19.1733C52.3077 19.2355 52.2279 18.7928 52.6984 18.4744C55.7402 16.3893 60.7315 16.9912 61.3135 17.6901C61.8956 18.3929 61.1621 23.2659 58.3036 25.5918C57.865 25.9489 57.4465 25.7587 57.6418 25.285C58.2837 23.7241 59.7229 20.2256 59.0412 19.3752Z" fill="#080C12"/>
<path fill-rule="evenodd" clip-rule="evenodd" d="M52.9492 3.75425V1.72738C52.9492 1.42063 53.1884 1.21484 53.4754 1.21484H62.7922C63.0912 1.21484 63.3304 1.42452 63.3304 1.72738V3.46304C63.3265 3.75425 63.0753 4.13478 62.6288 4.73662L57.801 11.4501C59.595 11.4075 61.4886 11.6676 63.1152 12.5607C63.482 12.7626 63.5816 13.0577 63.6095 13.3489V15.5116C63.6095 15.8067 63.2747 16.1523 62.9238 15.9737C60.0574 14.5099 56.2502 14.3506 53.0808 15.9892C52.7578 16.1601 52.4189 15.8184 52.4189 15.5233V13.4693C52.4189 13.1392 52.423 12.5762 52.7618 12.0753L58.3551 4.26291H53.4874C53.1884 4.26291 52.9492 4.05711 52.9492 3.75425Z" fill="#080C12"/>
<path fill-rule="evenodd" clip-rule="evenodd" d="M18.9629 16.4007H16.1285C15.8573 16.3813 15.642 16.1833 15.6221 15.9309V1.76223C15.6221 1.47878 15.8653 1.25357 16.1683 1.25357H18.8114C19.0865 1.26521 19.3058 1.47101 19.3257 1.72729V3.57943H19.3776C20.0672 1.78941 21.3629 0.95459 23.1091 0.95459C24.8831 0.95459 25.9914 1.78941 26.7888 3.57943C27.4745 1.78941 29.0333 0.95459 30.7037 0.95459C31.8917 0.95459 33.1913 1.43219 33.9847 2.50387C34.8817 3.69591 34.6983 5.42768 34.6983 6.9459L34.6943 15.8882C34.6943 16.1717 34.4511 16.4007 34.1481 16.4007H31.3176C31.0346 16.3813 30.8073 16.16 30.8073 15.8882V8.37869C30.8073 7.78072 30.8631 6.28969 30.7276 5.72278C30.5163 4.77148 29.8824 4.50355 29.0612 4.50355C28.3755 4.50355 27.6579 4.95009 27.3668 5.66454C27.0758 6.37899 27.1037 7.57492 27.1037 8.37869V15.8882C27.1037 16.1717 26.8605 16.4007 26.5575 16.4007H23.727C23.44 16.3813 23.2167 16.16 23.2167 15.8882L23.2127 8.37869C23.2127 6.79835 23.4798 4.47249 21.4666 4.47249C19.4293 4.47249 19.5091 6.7401 19.5091 8.37869V15.8882C19.5091 16.1717 19.2659 16.4007 18.9629 16.4007Z" fill="#080C12"/>
<path fill-rule="evenodd" clip-rule="evenodd" d="M71.3484 0.95459C75.5543 0.95459 77.8307 4.47249 77.8307 8.94558C77.8307 13.2673 75.3151 16.6959 71.3484 16.6959C67.2182 16.6959 64.9697 13.1779 64.9697 8.79415C64.9697 4.38318 67.2462 0.95459 71.3484 0.95459ZM71.3724 3.84734C69.2833 3.84734 69.1517 6.61973 69.1517 8.34762C69.1517 10.0794 69.1238 13.7759 71.3484 13.7759C73.5451 13.7759 73.6487 10.7938 73.6487 8.97665C73.6487 7.78072 73.5968 6.35181 73.2261 5.218C72.9072 4.23176 72.2733 3.84734 71.3724 3.84734Z" fill="#080C12"/>
<path fill-rule="evenodd" clip-rule="evenodd" d="M83.2871 16.4007H80.4645C80.1814 16.3813 79.9542 16.16 79.9542 15.8882L79.9502 1.71564C79.9742 1.45548 80.2093 1.25357 80.4964 1.25357H83.1236C83.3708 1.26521 83.5741 1.4283 83.6299 1.64962V3.81628H83.6818C84.4751 1.87872 85.5874 0.95459 87.5448 0.95459C88.8166 0.95459 90.0564 1.40112 90.8537 2.62423C91.5953 3.75804 91.5953 5.66454 91.5953 7.0352V15.9542C91.5634 16.2027 91.3282 16.4007 91.0491 16.4007H88.2066C87.9475 16.3813 87.7322 16.1949 87.7043 15.9542V8.25831C87.7043 6.70904 87.8877 4.44143 85.9302 4.44143C85.2406 4.44143 84.6066 4.89185 84.2917 5.57523C83.8931 6.44112 83.8412 7.30312 83.8412 8.25831V15.8882C83.8372 16.1717 83.59 16.4007 83.2871 16.4007Z" fill="#080C12"/>
<path fill-rule="evenodd" clip-rule="evenodd" d="M45.521 9.63252C45.521 10.7081 45.5489 11.605 44.9908 12.5602C44.5403 13.3368 43.8227 13.8144 43.0293 13.8144C41.941 13.8144 41.3031 13.0068 41.3031 11.8148C41.3031 9.46172 43.4679 9.03456 45.521 9.03456V9.63252ZM48.3794 16.3616C48.1921 16.5246 47.921 16.5363 47.7097 16.4276C46.7688 15.6665 46.5974 15.3132 46.0831 14.5871C44.5283 16.1325 43.424 16.5945 41.4107 16.5945C39.0227 16.5945 37.1689 15.1618 37.1689 12.2923C37.1689 10.0519 38.4128 8.52591 40.1908 7.78039C41.7297 7.1203 43.8784 7.00381 45.521 6.82131V6.46409C45.521 5.80787 45.5728 5.0313 45.1741 4.4644C44.8313 3.95574 44.1695 3.74606 43.5835 3.74606C42.503 3.74606 41.5423 4.28578 41.307 5.40406C41.2592 5.65257 41.0719 5.89718 40.8127 5.90883L38.0659 5.6215C37.8347 5.57102 37.5756 5.38853 37.6433 5.04295C38.2732 1.79685 41.2871 0.818359 43.9821 0.818359C45.3615 0.818359 47.1635 1.17559 48.2518 2.1929C49.6312 3.44708 49.4996 5.1206 49.4996 6.94169V11.2439C49.4996 12.537 50.0498 13.1039 50.5681 13.8028C50.7475 14.0513 50.7873 14.3502 50.5561 14.5366C49.978 15.0065 48.9494 15.8801 48.3834 16.3693L48.3794 16.3616Z" fill="#080C12"/>
<path fill-rule="evenodd" clip-rule="evenodd" d="M8.36085 9.63249C8.36085 10.7081 8.38875 11.605 7.83062 12.5603C7.38013 13.3368 6.66651 13.8144 5.86918 13.8144C4.78082 13.8144 4.14695 13.0068 4.14695 11.8147C4.14695 9.46169 6.3117 9.03456 8.36085 9.03456V9.63249ZM11.2193 16.3615C11.0319 16.5247 10.7609 16.5363 10.5495 16.4276C9.60865 15.6666 9.44123 15.3132 8.92297 14.5871C7.36817 16.1325 6.26786 16.5946 4.25059 16.5946C1.86658 16.5946 0.00878906 15.1617 0.00878906 12.2923C0.00878906 10.0518 1.25662 8.52591 3.03068 7.78039C4.56953 7.1203 6.71834 7.00381 8.36085 6.82131V6.46409C8.36085 5.80788 8.41267 5.0313 8.01799 4.46439C7.67115 3.95574 7.00937 3.74606 6.42731 3.74606C5.34694 3.74606 4.38216 4.28578 4.14695 5.40405C4.0991 5.65256 3.91174 5.89718 3.65659 5.90883L0.905788 5.62149C0.674561 5.57102 0.419415 5.38852 0.483201 5.04295C1.11708 1.79685 4.12701 0.818359 6.82199 0.818359C8.20138 0.818359 10.0034 1.17559 11.0917 2.1929C12.4711 3.44708 12.3395 5.1206 12.3395 6.94168V11.2439C12.3395 12.5369 12.8897 13.1038 13.408 13.8027C13.5914 14.0513 13.6313 14.3502 13.4 14.5366C12.8219 15.0064 11.7934 15.8801 11.2273 16.3694L11.2193 16.3615Z" fill="#080C12"/>
</svg>
