<svg width="104" height="25" viewBox="0 0 104 25" fill="none" xmlns="http://www.w3.org/2000/svg">
<path d="M50.9301 13.8315C50.9004 13.9613 50.8692 14.0642 50.854 14.1694C50.6582 15.4961 50.4646 16.8229 50.2696 18.1496C50.0499 19.6438 49.8339 21.1388 49.6077 22.6323C49.4975 23.3609 49.2401 23.5762 48.4912 23.5784C47.0724 23.5828 45.6535 23.5799 44.2354 23.5791C44.1274 23.5791 44.0187 23.5777 43.9128 23.5632C43.377 23.4921 43.0327 23.068 43.0965 22.5257C43.1668 21.929 43.2632 21.3353 43.3509 20.74C43.5199 19.5967 43.691 18.4534 43.8599 17.3101C44.0933 15.7245 44.3239 14.1382 44.5581 12.5519C44.8502 10.5697 45.1453 8.58831 45.4389 6.60616C45.6579 5.12716 45.879 3.64889 46.0914 2.16844C46.1784 1.56016 46.3046 1.18389 47.2652 1.16794C47.9895 1.15634 48.7145 1.16576 49.4395 1.16504C50.0405 1.16504 50.6423 1.16141 51.2433 1.16721C51.4115 1.16866 51.5797 1.19404 51.7479 1.21434C52.1046 1.25711 52.3322 1.46954 52.4765 1.78419C52.5345 1.91034 52.5852 2.03939 52.6375 2.16771C53.7757 4.94954 54.9132 7.73136 56.0522 10.5132C56.0979 10.6248 56.1523 10.7329 56.2161 10.8728C56.3299 10.7568 56.3306 10.6335 56.3466 10.5233C56.5387 9.22776 56.7279 7.93074 56.9186 6.63516C57.1383 5.14094 57.3586 3.64671 57.5805 2.15249C57.5986 2.03069 57.6189 1.90671 57.661 1.79216C57.7676 1.50216 57.9517 1.28249 58.2736 1.22376C58.4396 1.19404 58.6085 1.16866 58.7767 1.16794C60.1492 1.16359 61.5216 1.16359 62.894 1.16794C63.0622 1.16866 63.2333 1.18824 63.3972 1.22521C63.9003 1.33904 64.1751 1.73996 64.1019 2.25254C63.9866 3.06091 63.8641 3.86856 63.7444 4.67694C63.4784 6.47639 63.213 8.27511 62.947 10.0746C62.6519 12.0719 62.3554 14.0693 62.061 16.0667C61.8 17.8357 61.5412 19.6047 61.2809 21.3737C61.2178 21.8007 61.1562 22.2277 61.091 22.654C61.0743 22.7606 61.054 22.8679 61.0213 22.9701C60.9256 23.2717 60.7263 23.474 60.4116 23.5385C60.2623 23.569 60.1057 23.5784 59.9527 23.5784C58.5955 23.5813 57.239 23.577 55.8818 23.582C55.3214 23.5842 54.9596 23.5139 54.6544 22.7613C53.5031 19.9186 52.3322 17.0839 51.1664 14.2462C51.1077 14.1092 51.0744 13.954 50.9301 13.8315Z" fill="#080C12"/>
<path d="M83.2139 14.8321C83.2465 13.2995 83.4401 11.9764 83.7409 10.6648C84.1455 8.90308 84.8335 7.26531 85.834 5.75876C87.0194 3.97381 88.539 2.56223 90.4885 1.64801C92.0371 0.921557 93.6749 0.575006 95.3844 0.696806C96.9272 0.807006 98.3816 1.22533 99.6793 2.11563C101.097 3.08858 102.116 4.37546 102.732 5.97046C103.385 7.66116 103.67 9.41131 103.508 11.2303C103.354 12.9602 103.025 14.6487 102.367 16.2604C101.617 18.0975 100.546 19.7266 99.0827 21.0737C97.6399 22.4026 95.9724 23.3299 94.0461 23.7743C92.9093 24.0367 91.766 24.1571 90.6045 24.0201C89.256 23.8606 87.9858 23.4763 86.8497 22.6969C85.5919 21.8335 84.6813 20.6945 84.0955 19.2967C83.6394 18.2092 83.3784 17.0688 83.2748 15.8943C83.2378 15.4788 83.2262 15.062 83.2139 14.8321ZM97.0831 10.8091C97.0962 10.1581 97.0505 9.51208 96.9019 8.87916C96.7337 8.16431 96.4422 7.50746 95.9006 6.98473C95.6259 6.72011 95.304 6.54901 94.9291 6.48521C94.2223 6.36486 93.5473 6.44823 92.9223 6.82233C92.454 7.10218 92.0603 7.46831 91.7094 7.88228C91.1127 8.58408 90.7031 9.39028 90.3841 10.2494C89.7258 12.0242 89.5547 13.8447 89.8715 15.7079C89.989 16.4003 90.2442 17.0427 90.6893 17.5973C91.033 18.0258 91.4731 18.2839 92.027 18.3361C92.7781 18.4071 93.4654 18.2382 94.0809 17.7952C94.5985 17.4218 95.0451 16.9767 95.3924 16.4409C96.4995 14.727 97.0679 12.85 97.0831 10.8091Z" fill="#080C12"/>
<path d="M28.747 1.16682C29.4096 1.16682 30.073 1.16247 30.7356 1.16972C30.9191 1.1719 31.1061 1.18785 31.2845 1.227C31.7876 1.33647 32.0631 1.73232 32.0008 2.24997C31.958 2.6016 31.8978 2.95105 31.8456 3.30195C31.3961 6.33535 30.9459 9.36875 30.4964 12.4021C30.3405 13.4541 30.1767 14.5046 30.0389 15.5588C29.9932 15.9075 29.9766 16.2715 30.0222 16.618C30.1223 17.3706 30.508 17.9506 31.2308 18.2406C31.7499 18.4486 32.2893 18.4254 32.8084 18.2152C33.677 17.8628 34.2932 17.2386 34.6949 16.3998C34.8486 16.0793 34.9559 15.7444 35.0081 15.3884C35.3365 13.1315 35.6722 10.876 36.0064 8.61982C36.3022 6.62317 36.6002 4.62652 36.8974 2.62987C36.9337 2.38627 36.9677 2.14195 37.0156 1.90052C37.0917 1.51047 37.3252 1.27267 37.7246 1.2154C37.8762 1.19365 38.0299 1.17045 38.1828 1.16972C39.5393 1.1661 40.8965 1.1661 42.253 1.16972C42.406 1.17045 42.5611 1.18712 42.7105 1.21757C43.2665 1.33067 43.5515 1.72362 43.4804 2.28912C43.4282 2.70165 43.3593 3.11272 43.2984 3.5238C43.1259 4.68235 42.9512 5.84017 42.7801 6.99872C42.5437 8.59952 42.311 10.201 42.0739 11.8011C41.9093 12.914 41.7513 14.0276 41.5708 15.1376C41.362 16.4237 40.9951 17.6606 40.3535 18.8046C39.7452 19.8892 39.0006 20.8636 38.0444 21.6684C36.7321 22.7733 35.2335 23.4801 33.5559 23.8405C31.7782 24.2218 30.0266 24.1566 28.3156 23.5534C26.0391 22.7515 24.5405 21.1928 23.8554 18.8568C23.4429 17.4496 23.4233 16.0337 23.6379 14.5989C23.975 12.3434 24.3042 10.0865 24.6369 7.8303C24.9139 5.95545 25.1959 4.0806 25.4649 2.20502C25.5744 1.44377 25.8709 1.1719 26.6648 1.16827C27.3593 1.16465 28.0531 1.16682 28.747 1.16682Z" fill="#080C12"/>
<path d="M74.5116 6.98993C74.4239 6.96528 74.3681 6.93845 74.3108 6.93555C74.1723 6.92758 74.0331 6.92975 73.8946 6.92975C71.7356 6.92975 69.5773 6.93048 67.4182 6.9283C67.2341 6.9283 67.0463 6.92758 66.865 6.89858C66.3191 6.81085 66.0277 6.43893 66.0712 5.89155C66.0886 5.67695 66.1299 5.46453 66.1618 5.25065C66.3126 4.22913 66.4627 3.2076 66.6156 2.18608C66.6359 2.04905 66.6599 1.9113 66.7005 1.77935C66.7896 1.4937 66.9774 1.30013 67.2761 1.23778C67.4414 1.2037 67.6103 1.18558 67.7778 1.1689C67.8692 1.15948 67.9627 1.16673 68.0555 1.16673C73.2827 1.16673 78.51 1.166 83.7372 1.16963C83.9823 1.16963 84.2324 1.18195 84.4702 1.2327C84.9429 1.33493 85.2104 1.76848 85.1285 2.2448C85.0879 2.48115 84.969 2.67473 84.8255 2.8596C84.2679 3.57808 83.7104 4.29655 83.1558 5.0172C80.7212 8.1811 78.2881 11.3457 75.8536 14.5104C75.0923 15.5 74.3304 16.4889 73.5698 17.4792C73.5082 17.5597 73.4596 17.6496 73.3915 17.7562C73.5532 17.8381 73.6916 17.8142 73.8236 17.8142C75.4425 17.8156 77.0614 17.8156 78.6804 17.8156C79.2198 17.8156 79.7599 17.8127 80.2993 17.8178C80.4523 17.8193 80.6045 17.8425 80.7568 17.8606C81.3295 17.9287 81.605 18.5145 81.5318 18.9394C81.4586 19.3642 81.4035 19.7927 81.3397 20.2197C81.2237 20.9969 81.1084 21.7748 80.9902 22.552C80.9721 22.6738 80.9474 22.7949 80.9192 22.9145C80.8322 23.2872 80.59 23.4989 80.2188 23.5547C80.0521 23.5801 79.881 23.5801 79.712 23.5801C77.5842 23.5815 75.4563 23.5808 73.3284 23.5808C70.2602 23.5808 67.1913 23.5808 64.1231 23.5801C63.9534 23.5801 63.7838 23.5794 63.6149 23.5663C62.8188 23.5025 62.6383 22.6412 62.9218 22.1859C62.979 22.0946 63.0399 22.0054 63.1059 21.9198C65.8442 18.3485 68.584 14.7772 71.3223 11.2058C72.3257 9.89717 73.3262 8.58638 74.3267 7.27558C74.3913 7.19365 74.4406 7.10158 74.5116 6.98993Z" fill="#080C12"/>
<path d="M0.505237 22.8961C1.30491 21.7173 6.51331 14.5093 7.51599 13.1267C7.65881 12.9295 7.98434 12.757 8.28086 13.018C8.29536 13.031 8.55781 13.2717 8.57159 13.2841C9.90921 14.4702 10.8771 15.2756 12.2133 16.4632C12.2756 16.5183 12.3387 16.5719 12.4032 16.6256C12.5395 16.7387 12.744 16.7119 12.8433 16.5661C12.8795 16.5132 12.9114 16.4596 12.9477 16.4095C14.0424 14.9001 15.1336 13.3877 16.2254 11.8761C17.5884 9.98966 18.9507 8.10321 20.3151 6.21821L20.3173 6.21531C20.4514 6.03043 20.732 6.05943 20.8299 6.26533C20.8342 6.27403 20.8379 6.28273 20.8422 6.29143C21.2402 7.08168 21.4809 7.92558 21.6694 8.78543C21.9783 10.1934 21.9072 11.5992 21.6491 13.0086C21.2301 15.2945 20.2231 17.2919 18.7303 19.0558C17.2672 20.7856 15.4765 22.0631 13.3551 22.8555C12.1212 23.3166 10.8408 23.5783 9.51409 23.5776C6.83231 23.5762 4.15054 23.5798 1.46876 23.5791C1.33029 23.5791 1.19109 23.5725 1.05479 23.5508C0.816263 23.5138 0.625588 23.413 0.503788 23.2303C0.435638 23.1296 0.436362 22.9969 0.505237 22.8961Z" fill="#080C12"/>
<path d="M12.0854 12.2479C12.0571 12.2986 11.9404 12.4777 11.7055 12.3044C11.5794 12.2109 11.6236 12.2515 11.5221 12.1652C10.1758 11.0125 9.02446 10.0207 7.67959 8.86503C7.29969 8.5221 6.92849 8.67943 6.74361 9.09703C5.86999 10.8994 5.12904 12.4038 4.25686 14.2068C3.06931 16.6617 1.88104 19.1165 0.691314 21.5707C0.582564 21.8186 0.432489 21.7563 0.448439 21.6432C0.621714 20.4542 0.796439 19.2652 0.971889 18.0769C1.23506 16.2934 1.49824 14.5106 1.76141 12.7271C2.02459 10.9436 2.28631 9.16083 2.54876 7.37733C2.78656 5.76203 3.02364 4.146 3.26289 2.5307C3.29189 2.33278 3.31871 2.1334 3.36656 1.9391C3.45936 1.56428 3.67614 1.30545 4.07924 1.24745C4.23076 1.2257 4.38446 1.20613 4.53744 1.20613C7.18876 1.20395 9.83936 1.1909 12.4907 1.20975C14.0371 1.22063 15.5161 1.5563 16.8972 2.27333C16.9067 2.2784 16.9161 2.28348 16.9255 2.28855C16.8392 2.4785 13.7333 8.8469 12.0854 12.2479Z" fill="#080C12"/>
</svg>
