<svg width="88" height="24" viewBox="0 0 88 24" fill="none" xmlns="http://www.w3.org/2000/svg">
<path d="M16.9597 10.1905H9.55511C9.35961 10.1905 9.21298 10.3371 9.21298 10.5326V14.1494C9.21298 14.3449 9.35961 14.4915 9.55511 14.4915H12.4387V18.988C12.4387 18.988 11.7789 19.208 9.99499 19.208C7.89335 19.208 4.9364 18.426 4.9364 11.95C4.9364 5.44959 8.01554 4.59427 10.8992 4.59427C13.3918 4.59427 14.4671 5.03415 15.1513 5.25409C15.3713 5.3274 15.5668 5.10746 15.5668 4.91196L16.3976 1.41738C16.3976 1.31963 16.3732 1.22188 16.2755 1.14857C15.9822 0.953067 14.296 0 9.99499 0C5.05859 0 0 2.10164 0 12.1944C0 22.2871 5.79172 23.8022 10.6792 23.8022C14.7359 23.8022 17.1796 22.0672 17.1796 22.0672C17.2774 22.0183 17.3018 21.8717 17.3018 21.7984V10.5326C17.3018 10.3371 17.1552 10.1905 16.9597 10.1905Z" fill="#100E0F"/>
<path d="M55.082 1.22201C55.082 1.02651 54.9354 0.879883 54.7399 0.879883H50.5855C50.39 0.879883 50.2434 1.02651 50.2434 1.22201V9.26199H43.7429V1.22201C43.7429 1.02651 43.5963 0.879883 43.4008 0.879883H39.2464C39.0509 0.879883 38.9043 1.02651 38.9043 1.22201V23.0204C38.9043 23.2159 39.0509 23.3625 39.2464 23.3625H43.4008C43.5963 23.3625 43.7429 23.2159 43.7429 23.0204V13.6852H50.2434V22.9959C50.2434 23.1914 50.39 23.3381 50.5855 23.3381H54.7643C54.9598 23.3381 55.1064 23.1914 55.1064 22.9959V1.22201H55.082Z" fill="#100E0F"/>
<path d="M24.804 4.08123C24.804 2.59053 23.6066 1.36865 22.1159 1.36865C20.6252 1.36865 19.4277 2.59053 19.4277 4.08123C19.4277 5.57192 20.6252 6.7938 22.1159 6.7938C23.6066 6.7938 24.804 5.57192 24.804 4.08123Z" fill="#100E0F"/>
<path d="M24.5105 18.4016C24.5105 17.8396 24.5105 8.33334 24.5105 8.33334C24.5105 8.13784 24.3639 7.99121 24.1684 7.99121H20.014C19.8185 7.99121 19.6475 8.18671 19.6475 8.38221C19.6475 8.38221 19.6475 20.4788 19.6475 22.8004C19.6475 23.2158 19.9163 23.338 20.2584 23.338C20.2584 23.338 22.0423 23.338 23.9974 23.338C24.4128 23.338 24.5105 23.1425 24.5105 22.776C24.5105 22.0184 24.5105 18.9881 24.5105 18.4016Z" fill="#100E0F"/>
<path d="M70.8932 8.04004H66.7632C66.5677 8.04004 66.4211 8.18666 66.4211 8.38217V19.0614C66.4211 19.0614 65.3703 19.819 63.8796 19.819C62.3889 19.819 61.9979 19.1347 61.9979 17.6929C61.9979 16.2266 61.9979 8.38217 61.9979 8.38217C61.9979 8.18666 61.8513 8.04004 61.6558 8.04004H57.4525C57.257 8.04004 57.1104 8.18666 57.1104 8.38217C57.1104 8.38217 57.1104 14.0761 57.1104 18.4016C57.1104 22.727 59.5297 23.8023 62.8532 23.8023C65.5902 23.8023 67.7652 22.2872 67.7652 22.2872C67.7652 22.2872 67.8629 23.0692 67.9118 23.1669C67.9607 23.2647 68.0828 23.3624 68.205 23.3624H70.8687C71.0642 23.3624 71.2109 23.2158 71.2109 23.0203V8.38217C71.2353 8.18666 71.0887 8.04004 70.8932 8.04004Z" fill="#100E0F"/>
<path d="M82.1833 7.55135C79.8373 7.55135 78.2488 8.60217 78.2488 8.60217V1.22201C78.2488 1.02651 78.1022 0.879883 77.9067 0.879883H73.7279C73.5324 0.879883 73.3857 1.02651 73.3857 1.22201V23.0204C73.3857 23.2159 73.5324 23.3625 73.7279 23.3625H76.636C76.7581 23.3625 76.8559 23.2892 76.9292 23.167C77.0025 23.0448 77.1003 22.1651 77.1003 22.1651C77.1003 22.1651 78.8109 23.7779 82.0367 23.7779C85.8245 23.7779 87.9994 21.8474 87.9994 15.127C88.0239 8.43111 84.5537 7.55135 82.1833 7.55135ZM80.5704 19.819C79.1286 19.7702 78.1755 19.1348 78.1755 19.1348V12.2189C78.1755 12.2189 79.1286 11.6324 80.3016 11.5347C81.7923 11.4125 83.2341 11.8524 83.2341 15.3958C83.2097 19.1348 82.5743 19.8924 80.5704 19.819Z" fill="#100E0F"/>
<path d="M36.4856 7.99103H33.3576V3.86108C33.3576 3.71445 33.2843 3.6167 33.0888 3.6167H28.8366C28.6656 3.6167 28.5923 3.69001 28.5923 3.83664V8.11322C28.5923 8.11322 26.4662 8.62641 26.3196 8.67529C26.1729 8.72416 26.0752 8.84635 26.0752 9.01741V11.7056C26.0752 11.9011 26.2218 12.0477 26.4173 12.0477H28.5923C28.5923 12.0477 28.5923 14.858 28.5923 18.4992C28.5923 23.289 31.9402 23.7533 34.2129 23.7533C35.2393 23.7533 36.4856 23.4112 36.6811 23.3379C36.8033 23.289 36.8766 23.1668 36.8766 23.0202V20.0632C36.8766 19.8677 36.7056 19.7211 36.5345 19.7211C36.3634 19.7211 35.8747 19.7944 35.4104 19.7944C33.8708 19.7944 33.3576 19.0857 33.3576 18.1571C33.3576 17.2285 33.3576 12.0232 33.3576 12.0232H36.4856C36.6811 12.0232 36.8277 11.8766 36.8277 11.6811V8.33316C36.8277 8.1621 36.6811 7.99103 36.4856 7.99103Z" fill="#100E0F"/>
</svg>
