<svg width="125" height="32" viewBox="0 0 125 32" fill="none" xmlns="http://www.w3.org/2000/svg">
<g clip-path="url(#clip0)">
<path d="M34.2266 22.3999H36.7099V17.6598L37.9515 16.2198L41.819 22.3999H44.7501L39.7224 14.6598L44.4448 8.91972H41.3712L37.7683 13.6598C37.4427 14.1198 37.0966 14.5998 36.7709 15.1198H36.7099V8.91972H34.2266V22.3999ZM45.6445 22.3999H48.1481V16.5598C48.1481 16.2998 48.1685 16.0398 48.2499 15.8198C48.5349 15.0798 49.227 14.4398 50.204 14.4398C51.5881 14.4398 52.1174 15.5198 52.1174 16.9198V22.3999H54.6211V16.6598C54.6211 13.5398 52.8502 12.4398 51.1607 12.4398C50.5297 12.4398 49.9394 12.5998 49.4305 12.8798C48.9216 13.1398 48.4942 13.5198 48.1888 13.9798H48.1481V8.19971H45.6445V22.3999ZM64.5801 16.5598C64.5801 14.4198 63.6642 12.4398 60.4888 12.4398C58.9214 12.4398 57.6391 12.8598 56.9063 13.2998L57.3948 14.8998C58.0665 14.4798 59.0843 14.1798 60.0613 14.1798C61.8119 14.1798 62.0765 15.2398 62.0765 15.8798V16.0398C58.4126 16.0198 56.1938 17.2798 56.1938 19.7199C56.1938 21.1999 57.3134 22.6199 59.3082 22.6199C60.6109 22.6199 61.649 22.0799 62.2393 21.3199H62.3004L62.4836 22.3999H64.743C64.6209 21.7999 64.5801 20.9399 64.5801 20.0599V16.5598ZM62.1375 18.9799C62.1375 19.1599 62.1375 19.3399 62.0765 19.5199C61.8322 20.2199 61.1198 20.8599 60.102 20.8599C59.3082 20.8599 58.6772 20.4199 58.6772 19.4599C58.6772 17.9798 60.3666 17.6198 62.1375 17.6398V18.9799ZM67.1032 10.8397V12.6598H65.6987V14.4998H67.1032V19.0799C67.1032 20.3599 67.3475 21.2599 67.897 21.8199C68.3652 22.3199 69.1184 22.6199 70.0547 22.6199C70.8282 22.6199 71.4999 22.4999 71.8663 22.3599L71.8256 20.4999C71.5406 20.5799 71.2963 20.5999 70.8485 20.5999C69.8918 20.5999 69.5662 19.9999 69.5662 18.7999V14.4998H71.9477V12.6598H69.5662V10.1597L67.1032 10.8397ZM81.1195 16.5598C81.1195 14.4198 80.2035 12.4398 77.0281 12.4398C75.4608 12.4398 74.1784 12.8598 73.4456 13.2998L73.9341 14.8998C74.6058 14.4798 75.6236 14.1798 76.6006 14.1798C78.3512 14.1798 78.6158 15.2398 78.6158 15.8798V16.0398C74.9519 16.0198 72.7332 17.2798 72.7332 19.7199C72.7332 21.1999 73.8527 22.6199 75.8475 22.6199C77.1502 22.6199 78.1883 22.0799 78.7786 21.3199H78.8397L79.0229 22.3999H81.2823C81.1602 21.7999 81.1195 20.9399 81.1195 20.0599V16.5598ZM78.6769 18.9799C78.6769 19.1599 78.6769 19.3399 78.6158 19.5199C78.3715 20.2199 77.6591 20.8599 76.6413 20.8599C75.8475 20.8599 75.2165 20.4199 75.2165 19.4599C75.2165 17.9798 76.906 17.6198 78.6769 17.6398V18.9799ZM83.5583 22.3599C84.1486 22.4399 85.085 22.5199 86.3063 22.5199C88.5453 22.5199 90.0923 22.1199 91.0287 21.2599C91.7411 20.6199 92.2092 19.7199 92.2092 18.5599C92.2092 16.5598 90.6826 15.4998 89.3799 15.1998V15.1398C90.8047 14.6398 91.7004 13.4998 91.7004 12.1798C91.7004 11.1197 91.2526 10.3197 90.5401 9.79973C89.7056 9.11972 88.5657 8.81972 86.7948 8.81972C85.5735 8.81972 84.3318 8.93972 83.5583 9.11972V22.3599ZM85.3292 10.2797C85.6142 10.2197 86.0824 10.1597 86.8966 10.1597C88.6878 10.1597 89.8888 10.7997 89.8888 12.3598C89.8888 13.6598 88.7896 14.6398 86.9373 14.6398H85.3292V10.2797ZM85.3292 15.9398H86.7948C88.7285 15.9398 90.3366 16.7198 90.3366 18.5399C90.3366 20.4999 88.6471 21.1599 86.8151 21.1599C86.1841 21.1599 85.6956 21.1399 85.3292 21.0799V15.9398ZM98.3744 12.5198C95.6672 12.5198 93.4892 14.4198 93.4892 17.6398C93.4892 20.6999 95.5654 22.6199 98.2116 22.6199C100.573 22.6199 103.117 21.0599 103.117 17.4798C103.117 14.5398 101.204 12.5198 98.3744 12.5198ZM98.3337 13.8398C100.451 13.8398 101.285 15.8998 101.285 17.5398C101.285 19.7199 100.003 21.2999 98.293 21.2999C96.5424 21.2999 95.3211 19.6999 95.3211 17.5798C95.3211 15.7598 96.2371 13.8398 98.3337 13.8398ZM109.139 12.5198C106.432 12.5198 104.254 14.4198 104.254 17.6398C104.254 20.6999 106.33 22.6199 108.976 22.6199C111.337 22.6199 113.882 21.0599 113.882 17.4798C113.882 14.5398 111.968 12.5198 109.139 12.5198ZM109.098 13.8398C111.215 13.8398 112.05 15.8998 112.05 17.5398C112.05 19.7199 110.767 21.2999 109.058 21.2999C107.307 21.2999 106.086 19.6999 106.086 17.5798C106.086 15.7598 107.002 13.8398 109.098 13.8398ZM117.502 8.19971H115.731V22.3999H117.502V18.7599L118.418 17.7598L121.797 22.3999H123.995L119.659 16.6998L123.445 12.7198H121.308L118.397 16.0598C118.112 16.3998 117.787 16.8198 117.542 17.1598H117.502V8.19971Z" fill="#080C12"/>
<path d="M7.60352 5.60342C7.60352 5.30541 7.82611 5.05257 8.12623 5.00966L22.2155 2.99514C22.5838 2.94247 22.9141 3.22313 22.9141 3.58889V28.2923C22.9141 28.6515 22.5952 28.9301 22.2323 28.8883L8.143 27.2638C7.83538 27.2283 7.60352 26.9722 7.60352 26.6679V5.60342Z" fill="white" stroke="#080C12" stroke-width="2.85718"/>
<path d="M0.213867 4.17358C0.213867 3.37583 0.811927 2.69996 1.61594 2.58908L18.5372 0.255567C19.517 0.120455 20.3919 0.867947 20.3919 1.84006V30.1917C20.3919 31.1527 19.5358 31.8969 18.565 31.7797L1.64379 29.738C0.827334 29.6394 0.213867 28.9581 0.213867 28.1499V4.17358Z" fill="#080C12"/>
</g>
<defs>
<clipPath id="clip0">
<rect width="124.573" height="32.0004" fill="white" transform="translate(0.213867 -0.000488281)"/>
</clipPath>
</defs>
</svg>
