<svg width="140" height="32" viewBox="0 0 140 32" fill="none" xmlns="http://www.w3.org/2000/svg">
<g clip-path="url(#clip0)">
<path d="M15.5556 31.2219C24.1467 31.2219 31.1111 24.2575 31.1111 15.6664C31.1111 7.0753 24.1467 0.11084 15.5556 0.11084C6.96446 0.11084 0 7.0753 0 15.6664C0 24.2575 6.96446 31.2219 15.5556 31.2219Z" fill="#080C12"/>
<path fill-rule="evenodd" clip-rule="evenodd" d="M21.9528 15.71C21.9528 13.984 23.3267 12.5634 25.0614 12.4322C23.687 8.78282 20.083 6.16016 15.8482 6.16016C10.4411 6.16016 6.04883 10.4218 6.04883 15.6665C6.04883 20.9118 10.4417 25.1728 15.8482 25.1728C20.0606 25.1728 23.6422 22.5937 25.0384 18.9661C23.3043 18.8354 21.9522 17.4149 21.9522 15.71H21.9528ZM21.0966 20.1247C19.8124 21.5452 17.9432 22.4412 15.8252 22.4412C11.9736 22.4412 8.84198 19.4035 8.84198 15.6665C8.84198 11.9294 11.9736 8.89171 15.8252 8.89171C17.9202 8.89171 19.8124 9.78771 21.0966 11.2082C19.8578 12.3009 19.0695 13.8962 19.0695 15.6447C19.0695 17.3931 19.8578 19.0103 21.0966 20.1247Z" fill="white"/>
<path d="M38.1215 12.9204C38.1215 11.3357 38.7024 9.97454 39.8642 8.83704C41.0211 7.69954 42.4114 7.13079 44.035 7.13079C45.6392 7.13079 47.0149 7.7044 48.1621 8.85163C49.3142 9.99885 49.8902 11.377 49.8902 12.986C49.8902 14.6048 49.3118 15.978 48.1548 17.1058C46.993 18.2384 45.5906 18.8048 43.9475 18.8048C42.4941 18.8048 41.1888 18.3016 40.0319 17.2954C38.7583 16.1822 38.1215 14.7238 38.1215 12.9204ZM39.835 12.9423C39.835 14.1867 40.2531 15.21 41.0892 16.012C41.9204 16.8141 42.8805 17.2152 43.9694 17.2152C45.1507 17.2152 46.1472 16.8068 46.959 15.9902C47.7708 15.1638 48.1767 14.1575 48.1767 12.9714C48.1767 11.7707 47.7757 10.7645 46.9736 9.95267C46.1763 9.136 45.1895 8.72767 44.0132 8.72767C42.8416 8.72767 41.8524 9.136 41.0454 9.95267C40.2385 10.7596 39.835 11.7561 39.835 12.9423ZM53.3538 6.28496V13.7954L55.6652 11.4985H57.8673L54.7829 14.4808L58.0934 18.6006H55.9642L53.6163 15.6037L53.3538 15.8662V18.6006H51.7132V6.28496H53.3538ZM67.784 7.94746V9.95996C66.802 9.13843 65.7861 8.72767 64.7361 8.72767C63.5791 8.72767 62.6045 9.14329 61.8121 9.97454C61.0149 10.8009 60.6163 11.812 60.6163 13.0079C60.6163 14.1891 61.0149 15.1857 61.8121 15.9975C62.6093 16.8093 63.5864 17.2152 64.7434 17.2152C65.3413 17.2152 65.8493 17.1179 66.2673 16.9235C66.5007 16.8263 66.7413 16.695 66.9892 16.5298C67.242 16.3645 67.5069 16.1652 67.784 15.9318V17.9808C66.8118 18.5301 65.7909 18.8048 64.7215 18.8048C63.1125 18.8048 61.7392 18.2433 60.6017 17.1204C59.4691 15.9877 58.9027 14.6218 58.9027 13.0225C58.9027 11.5884 59.3767 10.31 60.3246 9.18704C61.4913 7.81135 63.0007 7.1235 64.8527 7.1235C65.8638 7.1235 66.8409 7.39815 67.784 7.94746ZM69.6215 11.4985H71.2621V12.1329C71.5635 11.8169 71.8309 11.6006 72.0642 11.4839C72.3024 11.3624 72.5843 11.3016 72.91 11.3016C73.3427 11.3016 73.7948 11.4426 74.2663 11.7245L73.5152 13.2266C73.2041 13.003 72.9003 12.8912 72.6038 12.8912C71.7093 12.8912 71.2621 13.5669 71.2621 14.9183V18.6006H69.6215V11.4985ZM81.5725 15.436H76.4829C76.5267 16.0193 76.7163 16.4836 77.0517 16.8287C77.3871 17.169 77.8173 17.3391 78.3423 17.3391C78.7507 17.3391 79.0885 17.2419 79.3559 17.0475C79.6184 16.853 79.9173 16.4933 80.2527 15.9683L81.6382 16.7412C81.4243 17.1058 81.1982 17.4193 80.96 17.6818C80.7218 17.9395 80.4666 18.1534 80.1944 18.3235C79.9222 18.4888 79.6281 18.6103 79.3121 18.6881C78.9961 18.7659 78.6534 18.8048 78.284 18.8048C77.2243 18.8048 76.3736 18.4645 75.7319 17.7839C75.0902 17.0985 74.7694 16.1895 74.7694 15.0568C74.7694 13.9339 75.0805 13.0249 75.7027 12.3298C76.3298 11.6443 77.1611 11.3016 78.1965 11.3016C79.2416 11.3016 80.068 11.6346 80.6757 12.3006C81.2784 12.9617 81.5798 13.878 81.5798 15.0495L81.5725 15.436ZM79.8882 14.0943C79.6597 13.2193 79.1079 12.7818 78.2329 12.7818C78.0336 12.7818 77.8465 12.8134 77.6715 12.8766C77.4965 12.935 77.3361 13.0225 77.1902 13.1391C77.0493 13.2509 76.9277 13.387 76.8257 13.5475C76.7236 13.7079 76.6458 13.8902 76.5923 14.0943H79.8882ZM88.609 6.28496H90.2569V18.6006H88.609V17.8568C87.9625 18.4888 87.2309 18.8048 86.4142 18.8048C85.442 18.8048 84.635 18.4499 83.9934 17.7402C83.3566 17.0159 83.0382 16.1117 83.0382 15.0277C83.0382 13.9679 83.3566 13.0832 83.9934 12.3735C84.6253 11.6589 85.4201 11.3016 86.3777 11.3016C87.209 11.3016 87.9527 11.6419 88.609 12.3225V6.28496ZM84.7152 15.0277C84.7152 15.7082 84.8975 16.2624 85.2621 16.6902C85.6364 17.1228 86.1079 17.3391 86.6767 17.3391C87.2843 17.3391 87.7753 17.1301 88.1496 16.712C88.5239 16.2794 88.7111 15.7301 88.7111 15.0641C88.7111 14.3982 88.5239 13.8488 88.1496 13.4162C87.7753 12.9933 87.2892 12.7818 86.6913 12.7818C86.1274 12.7818 85.6559 12.9957 85.2767 13.4235C84.9024 13.8561 84.7152 14.3909 84.7152 15.0277ZM93.9684 11.4985V18.6006H92.3277V11.4985H93.9684ZM92.0798 8.54538C92.0798 8.25857 92.1843 8.01065 92.3934 7.80163C92.6024 7.5926 92.8527 7.48809 93.1444 7.48809C93.4409 7.48809 93.6937 7.5926 93.9027 7.80163C94.1118 8.00579 94.2163 8.25614 94.2163 8.55267C94.2163 8.8492 94.1118 9.10197 93.9027 9.311C93.6986 9.52003 93.4482 9.62454 93.1517 9.62454C92.8552 9.62454 92.6024 9.52003 92.3934 9.311C92.1843 9.10197 92.0798 8.84677 92.0798 8.54538ZM97.7382 13.0298V18.6006H96.0975V13.0298H95.3975V11.4985H96.0975V8.89538H97.7382V11.4985H99.0142V13.0298H97.7382Z" fill="#080C12"/>
<path d="M38.9056 25.527C38.9288 25.8058 38.9898 26.0439 39.0885 26.2413C39.193 26.433 39.3237 26.5898 39.4805 26.7117C39.6431 26.8337 39.8289 26.9237 40.038 26.9818C40.2471 27.034 40.4707 27.0602 40.7088 27.0602C40.9875 27.0602 41.2285 27.0253 41.4318 26.9556C41.635 26.8859 41.8006 26.793 41.9283 26.6769C42.0561 26.5549 42.149 26.4155 42.2071 26.2587C42.271 26.1019 42.3029 25.9364 42.3029 25.7622C42.3029 25.5183 42.2477 25.3209 42.1374 25.1699C42.027 25.0189 41.8819 24.8969 41.7018 24.804C41.5276 24.7053 41.3244 24.6269 41.0921 24.5688C40.8656 24.5107 40.6304 24.4555 40.3865 24.4033C40.1484 24.3452 39.9132 24.2784 39.6809 24.2029C39.4544 24.1274 39.2511 24.0258 39.0711 23.898C38.8969 23.7703 38.7546 23.6077 38.6442 23.4102C38.5339 23.207 38.4787 22.9514 38.4787 22.6436C38.4787 22.4288 38.5223 22.2197 38.6094 22.0164C38.7023 21.8132 38.8359 21.6331 39.0101 21.4763C39.1901 21.3195 39.4137 21.1947 39.6809 21.1018C39.948 21.0088 40.2558 20.9624 40.6042 20.9624C40.9585 20.9624 41.2663 21.0118 41.5276 21.1105C41.7948 21.2092 42.0154 21.3457 42.1897 21.5199C42.3639 21.6883 42.4945 21.8858 42.5817 22.1123C42.6688 22.3387 42.7123 22.5798 42.7123 22.8353H42.1461C42.1461 22.5972 42.1025 22.391 42.0154 22.2168C41.9341 22.0426 41.8209 21.9003 41.6757 21.7899C41.5305 21.6796 41.365 21.5983 41.1792 21.546C40.9933 21.4938 40.8017 21.4676 40.6042 21.4676C40.3022 21.4676 40.0467 21.5112 39.8377 21.5983C39.6344 21.6796 39.4718 21.787 39.3498 21.9206C39.2279 22.0542 39.1437 22.2023 39.0972 22.3649C39.0508 22.5275 39.042 22.6901 39.0711 22.8527C39.1059 23.056 39.1872 23.2186 39.315 23.3405C39.4428 23.4625 39.5996 23.5641 39.7854 23.6454C39.9712 23.7209 40.1745 23.7848 40.3952 23.8371C40.6217 23.8835 40.851 23.9358 41.0833 23.9939C41.3156 24.0461 41.5392 24.11 41.7541 24.1855C41.9748 24.261 42.1693 24.3626 42.3377 24.4904C42.5062 24.6182 42.6397 24.7837 42.7385 24.9869C42.843 25.1844 42.8953 25.4341 42.8953 25.7361C42.8953 26.3168 42.6949 26.7669 42.2942 27.0863C41.8935 27.4057 41.3302 27.5654 40.6042 27.5654C40.279 27.5654 39.977 27.5219 39.6983 27.4347C39.4195 27.3534 39.1785 27.2286 38.9753 27.0602C38.772 26.8859 38.6123 26.674 38.4961 26.4243C38.3858 26.1687 38.3306 25.8697 38.3306 25.527H38.9056ZM43.8339 27.3999V22.8875H44.3565V27.3999H43.8339ZM43.8077 21.9032V21.1279H44.3827V21.9032H43.8077ZM46.1395 27.3999H45.6169V22.8875H46.1395V23.567H46.157C46.2905 23.3057 46.4822 23.1082 46.7319 22.9747C46.9816 22.8353 47.2546 22.7656 47.5507 22.7656C47.7598 22.7656 47.9369 22.7888 48.0821 22.8353C48.2273 22.8817 48.3493 22.9456 48.448 23.0269C48.5525 23.1024 48.6367 23.1924 48.7006 23.297C48.7703 23.4015 48.8284 23.5147 48.8748 23.6367C49.0258 23.3405 49.2262 23.1227 49.4759 22.9834C49.7314 22.8382 50.0218 22.7656 50.347 22.7656C50.6548 22.7656 50.8987 22.8179 51.0787 22.9224C51.2646 23.0211 51.4069 23.1547 51.5056 23.3231C51.6043 23.4857 51.6682 23.6744 51.6972 23.8893C51.7321 24.1042 51.7495 24.3249 51.7495 24.5514V27.3999H51.2268V24.2813C51.2268 23.9561 51.1571 23.7006 51.0178 23.5147C50.8842 23.3289 50.6316 23.236 50.2599 23.236C50.0682 23.236 49.8824 23.2795 49.7024 23.3667C49.5282 23.448 49.3743 23.5757 49.2407 23.7499C49.1826 23.8254 49.1333 23.9155 49.0926 24.02C49.0578 24.1187 49.0287 24.2232 49.0055 24.3336C48.9823 24.4439 48.9648 24.5543 48.9532 24.6646C48.9474 24.775 48.9445 24.8766 48.9445 24.9695V27.3999H48.4218V24.2813C48.4218 23.9561 48.3522 23.7006 48.2128 23.5147C48.0792 23.3289 47.8266 23.236 47.4549 23.236C47.2633 23.236 47.0774 23.2795 46.8974 23.3667C46.7232 23.448 46.5693 23.5757 46.4357 23.7499C46.3776 23.8254 46.3283 23.9155 46.2876 24.02C46.2528 24.1187 46.2237 24.2232 46.2005 24.3336C46.1773 24.4439 46.1599 24.5543 46.1482 24.6646C46.1424 24.775 46.1395 24.8766 46.1395 24.9695V27.3999ZM53.5266 25.1611C53.5266 25.4167 53.5615 25.6606 53.6312 25.8929C53.7008 26.1194 53.7996 26.3197 53.9273 26.4939C54.0609 26.6624 54.2206 26.7988 54.4064 26.9034C54.5981 27.0021 54.813 27.0515 55.0511 27.0515C55.3182 27.0515 55.5505 26.9992 55.748 26.8947C55.9512 26.7843 56.1167 26.6362 56.2445 26.4504C56.3723 26.2646 56.4652 26.0497 56.5232 25.8058C56.5813 25.5561 56.6045 25.2889 56.5929 25.0043C56.5929 24.7198 56.5523 24.4701 56.471 24.2552C56.3955 24.0345 56.288 23.8487 56.1487 23.6977C56.0093 23.5467 55.8467 23.4334 55.6608 23.3579C55.475 23.2766 55.2717 23.236 55.0511 23.236C54.8072 23.236 54.5894 23.2854 54.3977 23.3841C54.2061 23.4828 54.0464 23.6193 53.9186 23.7935C53.7909 23.9619 53.6921 24.1652 53.6224 24.4033C53.5586 24.6356 53.5266 24.8882 53.5266 25.1611ZM53.5266 29.177H53.004V22.8875H53.5266V23.6803H53.544C53.6195 23.5351 53.7154 23.4044 53.8315 23.2883C53.9535 23.1721 54.0841 23.0763 54.2235 23.0008C54.3687 22.9253 54.5168 22.8672 54.6678 22.8266C54.8188 22.7859 54.9669 22.7656 55.112 22.7656C55.4779 22.7656 55.7886 22.8266 56.0441 22.9485C56.2997 23.0705 56.5087 23.2389 56.6713 23.4538C56.8397 23.6628 56.9617 23.9126 57.0372 24.2029C57.1127 24.4933 57.1504 24.804 57.1504 25.135C57.1504 25.4486 57.1098 25.7506 57.0285 26.041C56.9472 26.3313 56.8223 26.5869 56.6539 26.8075C56.4913 27.0224 56.2822 27.1966 56.0267 27.3302C55.777 27.458 55.4808 27.5219 55.1382 27.5219C54.8188 27.5219 54.511 27.4522 54.2148 27.3128C53.9244 27.1676 53.695 26.9556 53.5266 26.6769V29.177ZM58.3467 27.3999V21.1279H58.8694V27.3999H58.3467ZM63.4661 24.8301C63.4661 24.6094 63.4341 24.4033 63.3702 24.2116C63.3122 24.0142 63.2222 23.8458 63.1002 23.7064C62.9841 23.5612 62.836 23.448 62.6559 23.3667C62.4759 23.2795 62.2697 23.236 62.0374 23.236C61.8052 23.236 61.599 23.2795 61.419 23.3667C61.2447 23.4538 61.0937 23.5699 60.966 23.7151C60.844 23.8603 60.7453 24.0287 60.6698 24.2203C60.5943 24.412 60.5449 24.6153 60.5217 24.8301H63.4661ZM60.5217 25.2657C60.5217 25.5096 60.5537 25.7419 60.6175 25.9626C60.6814 26.1774 60.7743 26.3662 60.8963 26.5288C61.0241 26.6856 61.1838 26.8134 61.3754 26.9121C61.567 27.005 61.7877 27.0515 62.0374 27.0515C62.3801 27.0515 62.6734 26.9614 62.9173 26.7814C63.1612 26.6014 63.3238 26.3459 63.4051 26.0148H63.9887C63.9249 26.2297 63.8406 26.4301 63.7361 26.6159C63.6316 26.7959 63.5009 26.9556 63.3441 27.095C63.1873 27.2286 63.0015 27.3331 62.7866 27.4086C62.5717 27.4841 62.322 27.5219 62.0374 27.5219C61.6774 27.5219 61.3667 27.4609 61.1054 27.3389C60.844 27.217 60.6292 27.0515 60.4607 26.8424C60.2923 26.6275 60.1675 26.3778 60.0862 26.0932C60.0049 25.8029 59.9642 25.4922 59.9642 25.1611C59.9642 24.8301 60.0107 24.5194 60.1036 24.2291C60.2023 23.9387 60.3388 23.6861 60.513 23.4712C60.693 23.2505 60.9108 23.0792 61.1663 22.9572C61.4219 22.8295 61.7122 22.7656 62.0374 22.7656C62.6588 22.7656 63.1467 22.9805 63.5009 23.4102C63.8552 23.8342 64.0294 24.4526 64.0236 25.2657H60.5217ZM65.3012 27.3999V26.6333H65.9371V27.3999H65.3012ZM69.9411 27.3999V21.1279H72.2321C72.6386 21.1279 72.9725 21.1744 73.2339 21.2673C73.501 21.3602 73.7101 21.488 73.8611 21.6506C74.0179 21.8132 74.1253 22.0019 74.1834 22.2168C74.2473 22.4259 74.2792 22.6465 74.2792 22.8788C74.2792 23.2273 74.2066 23.5147 74.0614 23.7412C73.9221 23.9677 73.7391 24.1478 73.5126 24.2813C73.2861 24.4091 73.0277 24.4991 72.7373 24.5514C72.4528 24.6036 72.1653 24.6298 71.8749 24.6298H70.5334V27.3999H69.9411ZM71.8924 24.1245C72.1711 24.1245 72.4208 24.1071 72.6415 24.0723C72.8622 24.0374 73.048 23.9735 73.199 23.8806C73.3558 23.7819 73.4749 23.6512 73.5562 23.4886C73.6433 23.3202 73.6869 23.1024 73.6869 22.8353C73.6869 22.4404 73.5562 22.1413 73.2949 21.938C73.0393 21.7348 72.6299 21.6331 72.0666 21.6331H70.5334V24.1245H71.8924ZM78.1672 25.0305C77.9465 25.1234 77.723 25.1844 77.4965 25.2134C77.27 25.2425 77.0435 25.2657 76.817 25.2831C76.4163 25.3121 76.1027 25.4022 75.8762 25.5531C75.6555 25.7041 75.5452 25.9335 75.5452 26.2413C75.5452 26.3807 75.5713 26.5027 75.6236 26.6072C75.6817 26.7059 75.7543 26.7901 75.8414 26.8598C75.9343 26.9237 76.0388 26.9731 76.155 27.0079C76.2769 27.0369 76.3989 27.0515 76.5208 27.0515C76.7299 27.0515 76.9332 27.0253 77.1306 26.9731C77.3281 26.9208 77.5023 26.8424 77.6533 26.7379C77.8101 26.6275 77.9349 26.491 78.0279 26.3284C78.1208 26.16 78.1672 25.9626 78.1672 25.7361V25.0305ZM77.2874 24.7691C77.3861 24.7575 77.5023 24.7401 77.6359 24.7169C77.7752 24.6937 77.8885 24.6617 77.9756 24.6211C78.0627 24.5804 78.115 24.5136 78.1324 24.4207C78.1556 24.322 78.1672 24.232 78.1672 24.1507C78.1672 23.8835 78.0801 23.6657 77.9059 23.4973C77.7375 23.3231 77.45 23.236 77.0435 23.236C76.8635 23.236 76.698 23.2534 76.547 23.2883C76.396 23.3173 76.2624 23.3725 76.1463 23.4538C76.0359 23.5293 75.943 23.6338 75.8675 23.7674C75.7978 23.8951 75.7513 24.0577 75.7281 24.2552H75.1967C75.2142 23.9881 75.2751 23.7616 75.3797 23.5757C75.4842 23.3841 75.6178 23.2302 75.7804 23.114C75.9488 22.9921 76.1404 22.905 76.3553 22.8527C76.576 22.7946 76.8083 22.7656 77.0522 22.7656C77.2787 22.7656 77.4907 22.7917 77.6881 22.844C77.8914 22.8904 78.0656 22.9688 78.2108 23.0792C78.3618 23.1837 78.4779 23.326 78.5592 23.506C78.6463 23.6861 78.6899 23.9067 78.6899 24.1681V26.6246C78.6899 26.8279 78.7247 26.9585 78.7944 27.0166C78.8699 27.0689 79.018 27.0544 79.2387 26.9731V27.3825C79.198 27.3941 79.1371 27.4115 79.0558 27.4347C78.9803 27.458 78.9048 27.4696 78.8293 27.4696C78.748 27.4696 78.6696 27.4609 78.5941 27.4435C78.507 27.4318 78.4373 27.4057 78.385 27.3651C78.3327 27.3186 78.2892 27.2663 78.2543 27.2083C78.2253 27.1444 78.205 27.0776 78.1934 27.0079C78.1817 26.9324 78.1759 26.854 78.1759 26.7727C77.9553 27.0166 77.7026 27.2025 77.4181 27.3302C77.1335 27.458 76.8257 27.5219 76.4947 27.5219C76.2972 27.5219 76.1056 27.4957 75.9198 27.4435C75.7397 27.3912 75.58 27.3099 75.4407 27.1995C75.3013 27.0892 75.1909 26.9556 75.1096 26.7988C75.0283 26.6362 74.9877 26.4446 74.9877 26.2239C74.9877 25.4573 75.5132 25.0043 76.5644 24.865L77.2874 24.7691ZM80.6383 25.1611C80.6383 25.4167 80.6731 25.6606 80.7428 25.8929C80.8125 26.1194 80.9112 26.3197 81.039 26.4939C81.1725 26.6624 81.3322 26.7988 81.5181 26.9034C81.7097 27.0021 81.9246 27.0515 82.1627 27.0515C82.4298 27.0515 82.6621 26.9992 82.8596 26.8947C83.0629 26.7843 83.2284 26.6362 83.3561 26.4504C83.4839 26.2646 83.5768 26.0497 83.6349 25.8058C83.693 25.5561 83.7162 25.2889 83.7046 25.0043C83.7046 24.7198 83.6639 24.4701 83.5826 24.2552C83.5071 24.0345 83.3997 23.8487 83.2603 23.6977C83.1209 23.5467 82.9583 23.4334 82.7725 23.3579C82.5866 23.2766 82.3834 23.236 82.1627 23.236C81.9188 23.236 81.701 23.2854 81.5094 23.3841C81.3177 23.4828 81.158 23.6193 81.0303 23.7935C80.9025 23.9619 80.8038 24.1652 80.7341 24.4033C80.6702 24.6356 80.6383 24.8882 80.6383 25.1611ZM80.6383 29.177H80.1156V22.8875H80.6383V23.6803H80.6557C80.7312 23.5351 80.827 23.4044 80.9431 23.2883C81.0651 23.1721 81.1958 23.0763 81.3351 23.0008C81.4803 22.9253 81.6284 22.8672 81.7794 22.8266C81.9304 22.7859 82.0785 22.7656 82.2237 22.7656C82.5895 22.7656 82.9002 22.8266 83.1558 22.9485C83.4113 23.0705 83.6204 23.2389 83.783 23.4538C83.9514 23.6628 84.0733 23.9126 84.1488 24.2029C84.2243 24.4933 84.2621 24.804 84.2621 25.135C84.2621 25.4486 84.2214 25.7506 84.1401 26.041C84.0588 26.3313 83.934 26.5869 83.7655 26.8075C83.6029 27.0224 83.3939 27.1966 83.1383 27.3302C82.8886 27.458 82.5925 27.5219 82.2498 27.5219C81.9304 27.5219 81.6226 27.4522 81.3264 27.3128C81.0361 27.1676 80.8067 26.9556 80.6383 26.6769V29.177ZM88.6466 24.8301C88.6466 24.6094 88.6147 24.4033 88.5508 24.2116C88.4927 24.0142 88.4027 23.8458 88.2808 23.7064C88.1646 23.5612 88.0165 23.448 87.8365 23.3667C87.6565 23.2795 87.4503 23.236 87.218 23.236C86.9857 23.236 86.7795 23.2795 86.5995 23.3667C86.4253 23.4538 86.2743 23.5699 86.1465 23.7151C86.0246 23.8603 85.9259 24.0287 85.8504 24.2203C85.7749 24.412 85.7255 24.6153 85.7023 24.8301H88.6466ZM85.7023 25.2657C85.7023 25.5096 85.7342 25.7419 85.7981 25.9626C85.862 26.1774 85.9549 26.3662 86.0769 26.5288C86.2046 26.6856 86.3643 26.8134 86.556 26.9121C86.7476 27.005 86.9683 27.0515 87.218 27.0515C87.5606 27.0515 87.8539 26.9614 88.0978 26.7814C88.3417 26.6014 88.5043 26.3459 88.5857 26.0148H89.1693C89.1054 26.2297 89.0212 26.4301 88.9167 26.6159C88.8121 26.7959 88.6815 26.9556 88.5247 27.095C88.3679 27.2286 88.182 27.3331 87.9672 27.4086C87.7523 27.4841 87.5026 27.5219 87.218 27.5219C86.8579 27.5219 86.5473 27.4609 86.2859 27.3389C86.0246 27.217 85.8097 27.0515 85.6413 26.8424C85.4729 26.6275 85.348 26.3778 85.2667 26.0932C85.1854 25.8029 85.1448 25.4922 85.1448 25.1611C85.1448 24.8301 85.1912 24.5194 85.2841 24.2291C85.3829 23.9387 85.5193 23.6861 85.6936 23.4712C85.8736 23.2505 86.0914 23.0792 86.3469 22.9572C86.6024 22.8295 86.8928 22.7656 87.218 22.7656C87.8394 22.7656 88.3272 22.9805 88.6815 23.4102C89.0357 23.8342 89.2099 24.4526 89.2041 25.2657H85.7023ZM90.7692 27.3999H90.2465V22.8875H90.7692V23.7325H90.7866C90.9318 23.3725 91.1177 23.1227 91.3441 22.9834C91.5764 22.8382 91.8813 22.7656 92.2588 22.7656V23.3318C91.9626 23.326 91.7187 23.3725 91.5271 23.4712C91.3354 23.5699 91.1815 23.7035 91.0654 23.8719C90.955 24.0403 90.8766 24.2407 90.8302 24.473C90.7895 24.6995 90.7692 24.9376 90.7692 25.1873V27.3999ZM93.1997 27.3999V21.1279H93.7224V27.3999H93.1997ZM98.319 24.8301C98.319 24.6094 98.2871 24.4033 98.2232 24.2116C98.1651 24.0142 98.0751 23.8458 97.9532 23.7064C97.837 23.5612 97.6889 23.448 97.5089 23.3667C97.3289 23.2795 97.1227 23.236 96.8904 23.236C96.6581 23.236 96.4519 23.2795 96.2719 23.3667C96.0977 23.4538 95.9467 23.5699 95.8189 23.7151C95.697 23.8603 95.5983 24.0287 95.5228 24.2203C95.4473 24.412 95.3979 24.6153 95.3747 24.8301H98.319ZM95.3747 25.2657C95.3747 25.5096 95.4066 25.7419 95.4705 25.9626C95.5344 26.1774 95.6273 26.3662 95.7492 26.5288C95.877 26.6856 96.0367 26.8134 96.2284 26.9121C96.42 27.005 96.6407 27.0515 96.8904 27.0515C97.233 27.0515 97.5263 26.9614 97.7702 26.7814C98.0141 26.6014 98.1767 26.3459 98.258 26.0148H98.8417C98.7778 26.2297 98.6936 26.4301 98.5891 26.6159C98.4845 26.7959 98.3539 26.9556 98.1971 27.095C98.0403 27.2286 97.8544 27.3331 97.6396 27.4086C97.4247 27.4841 97.175 27.5219 96.8904 27.5219C96.5303 27.5219 96.2196 27.4609 95.9583 27.3389C95.697 27.217 95.4821 27.0515 95.3137 26.8424C95.1453 26.6275 95.0204 26.3778 94.9391 26.0932C94.8578 25.8029 94.8172 25.4922 94.8172 25.1611C94.8172 24.8301 94.8636 24.5194 94.9565 24.2291C95.0553 23.9387 95.1917 23.6861 95.366 23.4712C95.546 23.2505 95.7638 23.0792 96.0193 22.9572C96.2748 22.8295 96.5652 22.7656 96.8904 22.7656C97.5118 22.7656 97.9996 22.9805 98.3539 23.4102C98.7081 23.8342 98.8823 24.4526 98.8765 25.2657H95.3747ZM100.198 25.9887C100.279 26.3778 100.424 26.6537 100.633 26.8163C100.848 26.9731 101.153 27.0515 101.548 27.0515C101.74 27.0515 101.905 27.0282 102.044 26.9818C102.184 26.9353 102.297 26.8743 102.384 26.7988C102.477 26.7175 102.547 26.6275 102.593 26.5288C102.64 26.4301 102.663 26.3255 102.663 26.2152C102.663 25.9945 102.59 25.8319 102.445 25.7274C102.306 25.617 102.129 25.5328 101.914 25.4747C101.699 25.4109 101.467 25.3586 101.217 25.3179C100.967 25.2715 100.735 25.2047 100.52 25.1176C100.305 25.0305 100.125 24.9056 99.9799 24.743C99.8405 24.5804 99.7709 24.351 99.7709 24.0548C99.7709 23.6774 99.9073 23.3696 100.18 23.1315C100.459 22.8875 100.851 22.7656 101.356 22.7656C101.844 22.7656 102.239 22.8759 102.541 23.0966C102.849 23.3115 103.035 23.6744 103.098 24.1855H102.567C102.521 23.8371 102.387 23.5931 102.166 23.4538C101.952 23.3086 101.679 23.236 101.348 23.236C101.017 23.236 100.764 23.3086 100.59 23.4538C100.415 23.5931 100.328 23.779 100.328 24.0113C100.328 24.2145 100.398 24.3713 100.537 24.4817C100.683 24.5862 100.863 24.6733 101.078 24.743C101.292 24.8069 101.525 24.865 101.774 24.9172C102.024 24.9695 102.256 25.045 102.471 25.1437C102.686 25.2366 102.863 25.3644 103.003 25.527C103.148 25.6896 103.22 25.9161 103.22 26.2065C103.22 26.4214 103.174 26.613 103.081 26.7814C102.988 26.944 102.86 27.0805 102.698 27.1908C102.535 27.3012 102.341 27.3825 102.114 27.4347C101.893 27.4928 101.65 27.5219 101.382 27.5219C101.115 27.5219 100.877 27.4812 100.668 27.3999C100.465 27.3244 100.291 27.217 100.145 27.0776C100 26.9382 99.887 26.7756 99.8057 26.5898C99.7244 26.4039 99.6779 26.2036 99.6663 25.9887H100.198ZM104.553 25.9887C104.635 26.3778 104.78 26.6537 104.989 26.8163C105.204 26.9731 105.509 27.0515 105.903 27.0515C106.095 27.0515 106.261 27.0282 106.4 26.9818C106.539 26.9353 106.653 26.8743 106.74 26.7988C106.833 26.7175 106.902 26.6275 106.949 26.5288C106.995 26.4301 107.018 26.3255 107.018 26.2152C107.018 25.9945 106.946 25.8319 106.801 25.7274C106.661 25.617 106.484 25.5328 106.269 25.4747C106.054 25.4109 105.822 25.3586 105.572 25.3179C105.323 25.2715 105.09 25.2047 104.876 25.1176C104.661 25.0305 104.481 24.9056 104.335 24.743C104.196 24.5804 104.126 24.351 104.126 24.0548C104.126 23.6774 104.263 23.3696 104.536 23.1315C104.815 22.8875 105.207 22.7656 105.712 22.7656C106.2 22.7656 106.595 22.8759 106.897 23.0966C107.204 23.3115 107.39 23.6744 107.454 24.1855H106.923C106.876 23.8371 106.743 23.5931 106.522 23.4538C106.307 23.3086 106.034 23.236 105.703 23.236C105.372 23.236 105.119 23.3086 104.945 23.4538C104.771 23.5931 104.684 23.779 104.684 24.0113C104.684 24.2145 104.754 24.3713 104.893 24.4817C105.038 24.5862 105.218 24.6733 105.433 24.743C105.648 24.8069 105.88 24.865 106.13 24.9172C106.38 24.9695 106.612 25.045 106.827 25.1437C107.042 25.2366 107.219 25.3644 107.358 25.527C107.503 25.6896 107.576 25.9161 107.576 26.2065C107.576 26.4214 107.53 26.613 107.437 26.7814C107.344 26.944 107.216 27.0805 107.053 27.1908C106.891 27.3012 106.696 27.3825 106.47 27.4347C106.249 27.4928 106.005 27.5219 105.738 27.5219C105.471 27.5219 105.233 27.4812 105.024 27.3999C104.82 27.3244 104.646 27.217 104.501 27.0776C104.356 26.9382 104.243 26.7756 104.161 26.5898C104.08 26.4039 104.033 26.2036 104.022 25.9887H104.553ZM108.865 27.3999V26.6333H109.501V27.3999H108.865ZM113.775 25.527C113.798 25.8058 113.859 26.0439 113.958 26.2413C114.063 26.433 114.193 26.5898 114.35 26.7117C114.513 26.8337 114.699 26.9237 114.908 26.9818C115.117 27.034 115.34 27.0602 115.578 27.0602C115.857 27.0602 116.098 27.0253 116.301 26.9556C116.505 26.8859 116.67 26.793 116.798 26.6769C116.926 26.5549 117.019 26.4155 117.077 26.2587C117.141 26.1019 117.173 25.9364 117.173 25.7622C117.173 25.5183 117.117 25.3209 117.007 25.1699C116.897 25.0189 116.751 24.8969 116.571 24.804C116.397 24.7053 116.194 24.6269 115.962 24.5688C115.735 24.5107 115.5 24.4555 115.256 24.4033C115.018 24.3452 114.783 24.2784 114.55 24.2029C114.324 24.1274 114.121 24.0258 113.941 23.898C113.766 23.7703 113.624 23.6077 113.514 23.4102C113.404 23.207 113.348 22.9514 113.348 22.6436C113.348 22.4288 113.392 22.2197 113.479 22.0164C113.572 21.8132 113.706 21.6331 113.88 21.4763C114.06 21.3195 114.283 21.1947 114.55 21.1018C114.818 21.0088 115.125 20.9624 115.474 20.9624C115.828 20.9624 116.136 21.0118 116.397 21.1105C116.664 21.2092 116.885 21.3457 117.059 21.5199C117.234 21.6883 117.364 21.8858 117.451 22.1123C117.538 22.3387 117.582 22.5798 117.582 22.8353H117.016C117.016 22.5972 116.972 22.391 116.885 22.2168C116.804 22.0426 116.691 21.9003 116.545 21.7899C116.4 21.6796 116.235 21.5983 116.049 21.546C115.863 21.4938 115.671 21.4676 115.474 21.4676C115.172 21.4676 114.916 21.5112 114.707 21.5983C114.504 21.6796 114.341 21.787 114.219 21.9206C114.098 22.0542 114.013 22.2023 113.967 22.3649C113.92 22.5275 113.912 22.6901 113.941 22.8527C113.976 23.056 114.057 23.2186 114.185 23.3405C114.312 23.4625 114.469 23.5641 114.655 23.6454C114.841 23.7209 115.044 23.7848 115.265 23.8371C115.491 23.8835 115.721 23.9358 115.953 23.9939C116.185 24.0461 116.409 24.11 116.624 24.1855C116.844 24.261 117.039 24.3626 117.207 24.4904C117.376 24.6182 117.509 24.7837 117.608 24.9869C117.713 25.1844 117.765 25.4341 117.765 25.7361C117.765 26.3168 117.565 26.7669 117.164 27.0863C116.763 27.4057 116.2 27.5654 115.474 27.5654C115.149 27.5654 114.847 27.5219 114.568 27.4347C114.289 27.3534 114.048 27.2286 113.845 27.0602C113.642 26.8859 113.482 26.674 113.366 26.4243C113.255 26.1687 113.2 25.8697 113.2 25.527H113.775ZM122.045 24.8301C122.045 24.6094 122.013 24.4033 121.949 24.2116C121.891 24.0142 121.801 23.8458 121.679 23.7064C121.563 23.5612 121.415 23.448 121.235 23.3667C121.055 23.2795 120.849 23.236 120.616 23.236C120.384 23.236 120.178 23.2795 119.998 23.3667C119.824 23.4538 119.673 23.5699 119.545 23.7151C119.423 23.8603 119.324 24.0287 119.249 24.2203C119.173 24.412 119.124 24.6153 119.101 24.8301H122.045ZM119.101 25.2657C119.101 25.5096 119.132 25.7419 119.196 25.9626C119.26 26.1774 119.353 26.3662 119.475 26.5288C119.603 26.6856 119.763 26.8134 119.954 26.9121C120.146 27.005 120.367 27.0515 120.616 27.0515C120.959 27.0515 121.252 26.9614 121.496 26.7814C121.74 26.6014 121.903 26.3459 121.984 26.0148H122.568C122.504 26.2297 122.419 26.4301 122.315 26.6159C122.21 26.7959 122.08 26.9556 121.923 27.095C121.766 27.2286 121.58 27.3331 121.365 27.4086C121.151 27.4841 120.901 27.5219 120.616 27.5219C120.256 27.5219 119.946 27.4609 119.684 27.3389C119.423 27.217 119.208 27.0515 119.04 26.8424C118.871 26.6275 118.746 26.3778 118.665 26.0932C118.584 25.8029 118.543 25.4922 118.543 25.1611C118.543 24.8301 118.589 24.5194 118.682 24.2291C118.781 23.9387 118.918 23.6861 119.092 23.4712C119.272 23.2505 119.49 23.0792 119.745 22.9572C120.001 22.8295 120.291 22.7656 120.616 22.7656C121.238 22.7656 121.725 22.9805 122.08 23.4102C122.434 23.8342 122.608 24.4526 122.602 25.2657H119.101ZM126.816 24.3075C126.723 23.9706 126.563 23.7093 126.337 23.5235C126.11 23.3318 125.823 23.236 125.474 23.236C125.207 23.236 124.978 23.2912 124.786 23.4015C124.594 23.5118 124.438 23.6599 124.316 23.8458C124.194 24.0258 124.104 24.232 124.046 24.4643C123.987 24.6907 123.958 24.9201 123.958 25.1524C123.958 25.3905 123.985 25.6228 124.037 25.8493C124.095 26.0758 124.185 26.2791 124.307 26.4591C124.429 26.6391 124.586 26.7843 124.777 26.8947C124.969 26.9992 125.201 27.0515 125.474 27.0515C125.863 27.0515 126.174 26.944 126.406 26.7291C126.644 26.5143 126.795 26.2181 126.859 25.8406H127.417C127.37 26.0903 127.295 26.3197 127.19 26.5288C127.092 26.7321 126.961 26.9092 126.798 27.0602C126.641 27.2054 126.453 27.3186 126.232 27.3999C126.011 27.4812 125.759 27.5219 125.474 27.5219C125.114 27.5219 124.803 27.4609 124.542 27.3389C124.281 27.217 124.066 27.0515 123.897 26.8424C123.729 26.6275 123.604 26.3749 123.523 26.0845C123.442 25.7942 123.401 25.4835 123.401 25.1524C123.401 24.8388 123.444 24.5398 123.532 24.2552C123.624 23.9648 123.758 23.7093 123.932 23.4886C124.107 23.2679 124.321 23.0937 124.577 22.9659C124.838 22.8324 125.137 22.7656 125.474 22.7656C125.997 22.7656 126.418 22.8904 126.737 23.1402C127.062 23.3899 127.266 23.779 127.347 24.3075H126.816ZM131.517 22.8875H132.039V27.3999H131.517V26.7727C131.447 26.854 131.369 26.9382 131.282 27.0253C131.194 27.1124 131.093 27.1937 130.977 27.2692C130.866 27.3389 130.736 27.397 130.585 27.4435C130.434 27.4957 130.259 27.5219 130.062 27.5219C129.76 27.5219 129.507 27.4812 129.304 27.3999C129.101 27.3128 128.935 27.1937 128.808 27.0427C128.686 26.8918 128.596 26.7175 128.538 26.5201C128.485 26.3168 128.459 26.0961 128.459 25.858V22.8875H128.982V25.8493C128.982 26.2384 129.072 26.5375 129.252 26.7466C129.432 26.9498 129.728 27.0515 130.14 27.0515C130.355 27.0515 130.547 27.0108 130.715 26.9295C130.89 26.8424 131.035 26.7233 131.151 26.5723C131.267 26.4214 131.357 26.2413 131.421 26.0323C131.485 25.8232 131.517 25.5938 131.517 25.3441V22.8875ZM133.848 27.3999H133.326V22.8875H133.848V23.7325H133.866C134.011 23.3725 134.197 23.1227 134.423 22.9834C134.656 22.8382 134.961 22.7656 135.338 22.7656V23.3318C135.042 23.326 134.798 23.3725 134.606 23.4712C134.415 23.5699 134.261 23.7035 134.145 23.8719C134.034 24.0403 133.956 24.2407 133.909 24.473C133.869 24.6995 133.848 24.9376 133.848 25.1873V27.3999ZM139.314 24.8301C139.314 24.6094 139.282 24.4033 139.218 24.2116C139.16 24.0142 139.07 23.8458 138.948 23.7064C138.832 23.5612 138.684 23.448 138.504 23.3667C138.324 23.2795 138.118 23.236 137.885 23.236C137.653 23.236 137.447 23.2795 137.267 23.3667C137.093 23.4538 136.942 23.5699 136.814 23.7151C136.692 23.8603 136.593 24.0287 136.518 24.2203C136.442 24.412 136.393 24.6153 136.37 24.8301H139.314ZM136.37 25.2657C136.37 25.5096 136.402 25.7419 136.465 25.9626C136.529 26.1774 136.622 26.3662 136.744 26.5288C136.872 26.6856 137.032 26.8134 137.223 26.9121C137.415 27.005 137.636 27.0515 137.885 27.0515C138.228 27.0515 138.521 26.9614 138.765 26.7814C139.009 26.6014 139.172 26.3459 139.253 26.0148H139.837C139.773 26.2297 139.689 26.4301 139.584 26.6159C139.48 26.7959 139.349 26.9556 139.192 27.095C139.035 27.2286 138.849 27.3331 138.635 27.4086C138.42 27.4841 138.17 27.5219 137.885 27.5219C137.525 27.5219 137.215 27.4609 136.953 27.3389C136.692 27.217 136.477 27.0515 136.309 26.8424C136.14 26.6275 136.015 26.3778 135.934 26.0932C135.853 25.8029 135.812 25.4922 135.812 25.1611C135.812 24.8301 135.859 24.5194 135.952 24.2291C136.05 23.9387 136.187 23.6861 136.361 23.4712C136.541 23.2505 136.759 23.0792 137.014 22.9572C137.27 22.8295 137.56 22.7656 137.885 22.7656C138.507 22.7656 138.995 22.9805 139.349 23.4102C139.703 23.8342 139.877 24.4526 139.872 25.2657H136.37Z" fill="#080C12"/>
</g>
<defs>
<clipPath id="clip0">
<rect width="140" height="31.1111" fill="white" transform="translate(0 0.11084)"/>
</clipPath>
</defs>
</svg>
