<svg width="76" height="24" viewBox="0 0 76 24" fill="none" xmlns="http://www.w3.org/2000/svg">
<path d="M75.7261 7.08919C75.0366 5.10589 73.1577 3.68169 70.9508 3.68169H70.9046C69.47 3.68169 68.177 4.28245 67.2567 5.24686C66.3347 4.28245 65.0418 3.68169 63.6087 3.68169H63.5626C62.3015 3.68169 61.1486 4.14628 60.2633 4.91525V4.52435C60.2331 4.13506 59.9146 3.82908 59.5213 3.82908H56.1361C55.7221 3.82908 55.3877 4.1655 55.3877 4.58363V23.0789C55.3877 23.4971 55.7221 23.8335 56.1361 23.8335H59.5213C59.8987 23.8335 60.2092 23.5499 60.2585 23.1831L60.2569 9.90554C60.2569 9.85908 60.2585 9.81582 60.2633 9.77257C60.3174 9.17982 60.749 8.69281 61.4305 8.63193H61.5563H61.9113H62.0546C62.3397 8.65756 62.5801 8.75849 62.7696 8.91068C63.0642 9.14618 63.2282 9.50823 63.2282 9.90554L63.2409 23.1174C63.2409 23.5355 63.5769 23.8735 63.9893 23.8735H67.3745C67.7742 23.8735 68.099 23.5531 68.1181 23.1542L68.1165 9.88791C68.1149 9.45216 68.3156 9.05807 68.6675 8.82417C68.841 8.71203 69.0496 8.63673 69.29 8.61431H69.4158H69.7709H69.9142C70.6467 8.67839 71.0893 9.23749 71.0878 9.88791L71.1005 23.0821C71.1005 23.5003 71.4365 23.8367 71.8489 23.8367H75.2341C75.6465 23.8367 75.9825 23.5003 75.9825 23.0821V8.89146C75.9825 7.92384 75.8742 7.51212 75.7261 7.08919Z" fill="#080C12"/>
<path d="M52.8069 3.87716H50.8707V0.721182C50.8707 0.717978 50.8707 0.714773 50.8707 0.711571C50.8707 0.331892 50.565 0.0243034 50.1876 0.0243034C50.143 0.0243034 50.1 0.0307121 50.0586 0.038723C47.9122 0.63147 48.3421 3.62244 44.4235 3.87716H44.3359H44.0429C43.9856 3.87716 43.9315 3.88517 43.8789 3.89638H43.8757L43.8789 3.89798C43.5446 3.97328 43.293 4.27125 43.293 4.63011V8.036C43.293 8.45092 43.6289 8.78894 44.0429 8.78894H46.0859L46.0827 23.2311C46.0827 23.6429 46.4139 23.9761 46.8231 23.9761H50.1701C50.5777 23.9761 50.9089 23.6429 50.9089 23.2311L50.9105 8.78894H52.8069C53.2193 8.78894 53.5553 8.45092 53.5553 8.036V4.63011C53.5553 4.21518 53.2193 3.87716 52.8069 3.87716Z" fill="#080C12"/>
<path d="M40.63 3.87704H37.2448C36.8324 3.87704 36.498 4.21506 36.498 4.62999V11.6725C36.4901 12.1082 36.1398 12.4574 35.7051 12.4574H34.2879C33.8484 12.4574 33.4934 12.1018 33.4934 11.6596L33.4806 4.62999C33.4806 4.21506 33.1446 3.87704 32.7322 3.87704H29.347C28.933 3.87704 28.5986 4.21506 28.5986 4.62999V12.3485C28.5986 15.2802 30.6766 17.3708 33.5921 17.3708C33.5921 17.3708 35.7799 17.3708 35.8468 17.3837C36.2417 17.4285 36.549 17.7617 36.549 18.1718C36.549 18.5772 36.248 18.9088 35.8579 18.9584C35.8388 18.9616 35.8213 18.9664 35.8006 18.9697L30.8501 18.9873C30.4361 18.9873 30.1018 19.3253 30.1018 19.7402V23.1445C30.1018 23.561 30.4361 23.8975 30.8501 23.8975H36.385C39.3021 23.8975 41.3784 21.8084 41.3784 18.8751V4.62999C41.3784 4.21506 41.044 3.87704 40.63 3.87704Z" fill="#080C12"/>
<path d="M7.86304 10.1183V11.7075V12.2202C7.86304 12.6607 7.50796 13.0196 7.07008 13.0196L4.92207 13.0212V8.80948H7.07008C7.50796 8.80948 7.86304 9.16513 7.86304 9.60729V10.1183ZM8.1608 3.87687H0.761393C0.355357 3.87687 0.0273438 4.20848 0.0273438 4.6154V7.9524C0.0273438 7.95881 0.0289359 7.96522 0.0289359 7.97163C0.0289359 7.98765 0.0273438 8.00367 0.0273438 8.01808V18.7212V23.1219C0.0273438 23.532 0.333065 23.8669 0.712032 23.8765H0.775723H4.16095C4.57335 23.8765 4.90933 23.54 4.90933 23.1235L4.92207 17.9474H8.1608C10.8709 17.9474 12.7594 16.0554 12.7594 13.3176V8.51311C12.7594 5.77526 10.8709 3.87687 8.1608 3.87687Z" fill="#080C12"/>
<path d="M21.9114 18.1138V18.6457C21.9114 18.689 21.9051 18.7306 21.8987 18.7707C21.8907 18.8091 21.8796 18.846 21.8668 18.8812C21.7618 19.1792 21.4656 19.3954 21.1137 19.3954H19.7045C19.265 19.3954 18.9068 19.059 18.9068 18.6457V18.0033C18.9068 17.9953 18.9052 17.9873 18.9052 17.9793L18.9068 16.2699V16.2667V16.0777V15.7348L18.9084 15.73C18.9099 15.3183 19.265 14.9851 19.7045 14.9851H21.1137C21.5548 14.9851 21.9114 15.3199 21.9114 15.7348V18.1138ZM21.3732 3.89592H16.676C16.2604 3.89592 15.9244 4.21312 15.9244 4.60241V5.92728C15.9244 5.93529 15.926 5.9449 15.926 5.95291C15.926 5.96252 15.9244 5.97214 15.9244 5.98175V7.79683C15.9244 8.20855 16.2811 8.54498 16.7205 8.54498H21.1933C21.5468 8.60105 21.827 8.86057 21.8668 9.26589V9.70484C21.827 10.0909 21.55 10.3729 21.2124 10.4049H18.9975C16.0518 10.4049 13.9531 12.3738 13.9531 15.1389V18.9981V19.0991C13.9531 21.8481 15.7572 23.8042 18.6823 23.8042H24.8206C25.9224 23.8042 26.8157 22.9647 26.8157 21.9314V9.00796C26.8157 5.87441 25.2107 3.89592 21.3732 3.89592Z" fill="#080C12"/>
</svg>
