<svg width="106" height="33" viewBox="0 0 106 33" fill="none" xmlns="http://www.w3.org/2000/svg">
<g clip-path="url(#clip0)">
<path d="M15.9266 0.763184C7.15665 0.763184 0.046875 7.87277 0.046875 16.6427C0.046875 25.413 7.15665 32.522 15.9266 32.522C24.6975 32.522 31.8065 25.413 31.8065 16.6427C31.8065 7.87334 24.6975 0.763942 15.9264 0.763942L15.9266 0.763184ZM23.2089 23.666C22.9245 24.1325 22.3139 24.2804 21.8474 23.9941C18.119 21.7167 13.4254 21.2009 7.89789 22.4638C7.36524 22.5852 6.83429 22.2514 6.71293 21.7186C6.591 21.1857 6.92341 20.6548 7.45739 20.5334C13.5064 19.1514 18.6951 19.7465 22.8809 22.3045C23.3473 22.5908 23.4952 23.1995 23.2089 23.666ZM25.1526 19.3422C24.7942 19.9247 24.0319 20.1087 23.4497 19.7503C19.1813 17.1266 12.6747 16.3668 7.62597 17.8993C6.9712 18.0971 6.27964 17.7281 6.08091 17.0745C5.8837 16.4197 6.2529 15.7295 6.90654 15.5304C12.6736 13.7805 19.8431 14.6281 24.7449 17.6403C25.327 17.9987 25.511 18.761 25.1526 19.3424V19.3422ZM25.3194 14.8398C20.2015 11.7999 11.7575 11.5204 6.87108 13.0034C6.08641 13.2414 5.25661 12.7985 5.01882 12.0138C4.78104 11.2287 5.22362 10.3995 6.00885 10.161C11.6181 8.45814 20.9429 8.78714 26.8353 12.2851C27.5426 12.704 27.7739 13.6155 27.3549 14.3204C26.9377 15.0262 26.0237 15.2588 25.3202 14.8398H25.3194ZM43.2503 15.4223C40.5083 14.7685 40.021 14.3096 40.021 13.3453C40.021 12.4344 40.8781 11.8213 42.1543 11.8213C43.3906 11.8213 44.6156 12.2868 45.9013 13.2452C45.9392 13.2742 45.9885 13.2858 46.0359 13.2782C46.0852 13.271 46.1269 13.2446 46.1554 13.205L47.4941 11.3179C47.5491 11.2401 47.5339 11.133 47.46 11.0736C45.9297 9.84619 44.2079 9.24944 42.1941 9.24944C39.2341 9.24944 37.1653 11.026 37.1653 13.5679C37.1653 16.2938 38.9496 17.259 42.0329 18.004C44.6554 18.6083 45.0991 19.1146 45.0991 20.0195C45.0991 21.0226 44.2041 21.6465 42.763 21.6465C41.1625 21.6465 39.856 21.1061 38.3959 19.8432C38.3599 19.8109 38.3106 19.7977 38.2651 19.7996C38.2158 19.8034 38.1722 19.8261 38.1418 19.8621L36.64 21.6484C36.5774 21.7243 36.585 21.8342 36.6571 21.8987C38.3561 23.4157 40.4458 24.2159 42.7023 24.2159C45.8918 24.2159 47.953 22.4733 47.953 19.7749C47.9587 17.4981 46.5953 16.2371 43.256 15.4247L43.2503 15.4223ZM55.1701 12.7182C53.7877 12.7182 52.6538 13.2628 51.717 14.3788V13.1227C51.717 13.0235 51.6374 12.9428 51.5388 12.9428H49.0832C48.9846 12.9428 48.9049 13.0235 48.9049 13.1227V27.0793C48.9049 27.1779 48.9846 27.2594 49.0832 27.2594H51.5388C51.6374 27.2594 51.717 27.1779 51.717 27.0793V22.6743C52.6538 23.7229 53.7877 24.2368 55.1701 24.2368C57.7395 24.2368 60.3411 22.259 60.3411 18.4781C60.3449 14.6964 57.7433 12.718 55.172 12.718L55.1701 12.7182ZM57.4854 18.4781C57.4854 20.4026 56.3003 21.747 54.6012 21.747C52.923 21.747 51.6564 20.3419 51.6564 18.4781C51.6564 16.6141 52.923 15.2093 54.6012 15.2093C56.2718 15.2091 57.4854 16.5835 57.4854 18.4779V18.4781ZM67.0064 12.7182C63.6975 12.7182 61.1053 15.266 61.1053 18.5192C61.1053 21.7375 63.6804 24.2576 66.9666 24.2576C70.2869 24.2576 72.8867 21.7186 72.8867 18.4781C72.8867 15.2486 70.304 12.7186 67.0064 12.7186V12.7182ZM67.0064 21.766C65.2467 21.766 63.9194 20.3514 63.9194 18.4771C63.9194 16.5943 65.2012 15.2281 66.9666 15.2281C68.7377 15.2281 70.0727 16.6421 70.0727 18.5183C70.0727 20.4007 68.7832 21.766 67.0064 21.766ZM79.9521 12.9428H77.25V10.1807C77.25 10.0817 77.1703 10.0009 77.0717 10.0009H74.6161C74.5175 10.0009 74.4359 10.0817 74.4359 10.1807V12.9428H73.2565C73.1579 12.9428 73.0782 13.0235 73.0782 13.1227V15.2327C73.0782 15.3316 73.1579 15.4126 73.2565 15.4126H74.4359V20.8728C74.4359 23.0782 75.5338 24.197 77.7013 24.197C78.5811 24.197 79.3112 24.0149 79.9995 23.6243C80.0564 23.594 80.0905 23.5333 80.0905 23.4688V21.4588C80.0905 21.3981 80.0583 21.3393 80.0052 21.3071C79.9521 21.2729 79.8857 21.2711 79.8307 21.2995C79.3586 21.5365 78.9016 21.6465 78.3896 21.6465C77.6026 21.6465 77.25 21.2881 77.25 20.4879V15.4136H79.9521C80.0507 15.4136 80.1303 15.3328 80.1303 15.2336V13.1238C80.1341 13.0247 80.0545 12.9439 79.954 12.9439L79.9521 12.9428ZM89.365 12.9536V12.6143C89.365 11.6163 89.7481 11.1713 90.6052 11.1713C91.1172 11.1713 91.5287 11.2729 91.9894 11.4265C92.0463 11.4443 92.1051 11.4354 92.1506 11.4015C92.198 11.3675 92.2246 11.3131 92.2246 11.2555V9.18668C92.2246 9.1076 92.1753 9.03763 92.0975 9.01431C91.6121 8.86962 90.9901 8.72115 90.0572 8.72115C87.7912 8.72115 86.5908 9.99808 86.5908 12.4126V12.9321H85.4114C85.3128 12.9321 85.2312 13.0129 85.2312 13.1119V15.2327C85.2312 15.3316 85.3128 15.4126 85.4114 15.4126H86.5908V23.8329C86.5908 23.9334 86.6724 24.013 86.771 24.013H89.2247C89.3252 24.013 89.4049 23.9334 89.4049 23.8329V15.4132H91.6974L95.2093 23.8329C94.8111 24.7165 94.4185 24.8929 93.8838 24.8929C93.4514 24.8929 92.9945 24.7639 92.5299 24.5079C92.4863 24.4852 92.4332 24.4814 92.3877 24.4947C92.3403 24.5117 92.3004 24.5459 92.2815 24.5914L91.449 26.4175C91.4092 26.5047 91.4433 26.6052 91.5268 26.6507C92.3952 27.121 93.1784 27.322 94.1474 27.322C95.9602 27.322 96.9633 26.4762 97.845 24.2045L102.104 13.1993C102.127 13.1439 102.119 13.0814 102.085 13.0323C102.053 12.9835 101.998 12.9541 101.939 12.9541H99.3829C99.3052 12.9541 99.2369 13.0029 99.2122 13.0747L96.5935 20.5524L93.7264 13.0698C93.6999 13.0002 93.6335 12.9541 93.5595 12.9541H89.365V12.9536ZM83.9077 12.9428H81.452C81.3534 12.9428 81.2719 13.0235 81.2719 13.1227V23.8329C81.2719 23.9334 81.3534 24.013 81.452 24.013H83.9077C84.0063 24.013 84.0878 23.9334 84.0878 23.8329V13.1235C84.0878 13.0243 84.0082 12.9435 83.9077 12.9435V12.9428ZM82.6941 8.06581C81.7213 8.06581 80.9324 8.85313 80.9324 9.82571C80.9324 10.7989 81.7213 11.5871 82.6941 11.5871C83.6668 11.5871 84.4538 10.7989 84.4538 9.82571C84.4538 8.85332 83.6649 8.06581 82.6941 8.06581ZM104.201 16.3865C103.23 16.3865 102.474 15.6062 102.474 14.6587C102.474 13.7111 103.24 12.9219 104.211 12.9219C105.182 12.9219 105.938 13.702 105.938 14.6488C105.938 15.5964 105.172 16.3865 104.201 16.3865ZM104.211 13.0937C103.325 13.0937 102.656 13.7972 102.656 14.6587C102.656 15.5197 103.321 16.2138 104.201 16.2138C105.087 16.2138 105.756 15.5108 105.756 14.6488C105.756 13.7877 105.091 13.0937 104.211 13.0937ZM104.594 14.8265L105.083 15.5106H104.67L104.23 14.883H103.852V15.5106H103.507V13.6971H104.315C104.738 13.6971 105.015 13.9127 105.015 14.2756C105.017 14.573 104.844 14.7546 104.596 14.8265H104.594ZM104.302 14.0083H103.852V14.5819H104.302C104.526 14.5819 104.66 14.4721 104.66 14.2948C104.66 14.1082 104.526 14.0083 104.302 14.0083Z" fill="#080C12"/>
</g>
<defs>
<clipPath id="clip0">
<rect width="106" height="31.8569" fill="white" transform="translate(0 0.709961)"/>
</clipPath>
</defs>
</svg>
