<svg width="14" height="14" viewBox="0 0 14 14" fill="none" xmlns="http://www.w3.org/2000/svg">
<path d="M7.59504 0.362466L7.70754 0.459965L13.54 6.29247L13.565 6.31747L13.6175 6.37872L13.54 6.29247C13.5775 6.32997 13.6125 6.37122 13.6438 6.41372C13.7213 6.52122 13.7788 6.64496 13.8088 6.77996L13.8163 6.81371C13.8225 6.84496 13.8263 6.87621 13.8288 6.90872L13.8325 6.95871V7.03372C13.8325 7.05872 13.83 7.08372 13.8275 7.10747L13.8338 6.99997C13.8338 7.05871 13.8288 7.11747 13.8188 7.17372L13.8063 7.23122C13.7988 7.26122 13.7913 7.28997 13.7813 7.31872L13.7663 7.36121C13.7563 7.38621 13.7463 7.41121 13.7338 7.43496C13.725 7.45496 13.7138 7.47496 13.7025 7.49497C13.69 7.51497 13.6788 7.53496 13.665 7.55371L13.6375 7.59496C13.615 7.62496 13.5975 7.64496 13.58 7.66496L13.54 7.70746L7.70754 13.54C7.31629 13.9312 6.68254 13.9312 6.29254 13.54C5.93754 13.185 5.90504 12.63 6.19629 12.2387L6.29254 12.1262L10.4175 7.99871L1.16754 7.99997C0.615042 7.99997 0.167542 7.55246 0.167542 6.99997C0.167542 6.48996 0.548792 6.06996 1.04129 6.00746L1.16629 5.99996H10.4188L6.29379 1.87372C5.93754 1.51872 5.90629 0.963716 6.19629 0.571216L6.29254 0.458715C6.64754 0.104965 7.20379 0.0712156 7.59504 0.362466Z" fill="white"/>
</svg>
