<svg width="152" height="31" viewBox="0 0 152 31" fill="none" xmlns="http://www.w3.org/2000/svg">
<g clip-path="url(#clip0)">
<path fill-rule="evenodd" clip-rule="evenodd" d="M144.77 17.2003V17.4745C144.77 19.058 145.667 20.1343 147.417 20.1343C148.73 20.1343 149.521 19.5004 150.189 18.6358L151.627 20.2608C150.731 21.5062 149.147 22.2867 147.125 22.2867C143.916 22.2867 141.999 20.0282 141.999 16.5039C141.999 13.0215 143.854 10.7626 147.042 10.7626C150.438 10.7626 152.001 13.2957 152.001 16.3132V17.2003H144.77ZM149.23 15.3431C149.23 13.8236 148.459 12.7894 147.084 12.7894C145.687 12.7894 144.77 13.8441 144.77 15.3641V15.5327H149.23V15.3431ZM136.802 20.1132C138.074 20.1132 138.699 19.3743 139.095 18.3826L141.137 19.3743C140.428 21.316 138.907 22.2867 136.802 22.2867C133.593 22.2867 131.78 20.0497 131.78 16.5039C131.78 12.979 133.593 10.7626 136.802 10.7626C138.991 10.7626 140.428 11.8182 141.075 13.5494L138.886 14.541C138.636 13.6124 137.948 12.937 136.802 12.937C135.322 12.937 134.573 13.9922 134.573 15.5327V17.538C134.573 19.0786 135.322 20.1132 136.802 20.1132ZM127.25 15.3431C127.25 13.781 126.729 12.979 125.458 12.979C124.354 12.979 123.291 13.5704 123.291 14.7517V22.0335H120.623V11.0157H123.291V12.8524H123.395C123.833 11.6702 124.749 10.7626 126.438 10.7626C128.667 10.7626 129.918 12.3246 129.918 15.0689V22.0335H127.25V15.3431ZM115.322 20.1343H115.198C114.844 21.5487 113.655 22.2867 112.03 22.2867C109.821 22.2867 108.571 20.9993 108.571 19.037C108.571 16.7785 110.259 15.6593 113.218 15.6593H115.073V14.8573C115.073 13.6334 114.468 12.9155 113.051 12.9155C111.801 12.9155 111.092 13.5494 110.571 14.3089L108.988 12.8734C109.779 11.6071 111.051 10.7626 113.239 10.7626C116.177 10.7626 117.74 12.177 117.74 14.6887V19.8811H118.824V22.0335H117.344C116.198 22.0335 115.49 21.2735 115.322 20.1343ZM115.073 17.2854H113.364C111.968 17.2854 111.28 17.7702 111.28 18.6358V18.9945C111.28 19.8811 111.884 20.3239 112.926 20.3239C114.114 20.3239 115.073 19.775 115.073 18.7413V17.2854ZM104.083 15.3431C104.083 13.781 103.562 12.979 102.291 12.979C101.186 12.979 100.123 13.5704 100.123 14.7517V22.0335H97.4559V11.0157H100.123V12.8524H100.228C100.665 11.6702 101.582 10.7626 103.271 10.7626C105.5 10.7626 106.751 12.3246 106.751 15.0689V22.0335H104.083V15.3431ZM93.4057 9.41215C92.3011 9.41215 91.8426 8.84276 91.8426 8.06126V7.63947C91.8426 6.85796 92.3011 6.28857 93.4057 6.28857C94.4892 6.28857 94.9682 6.85796 94.9682 7.63947V8.06126C94.9682 8.84276 94.4892 9.41215 93.4057 9.41215ZM93.4057 11.0157H94.7394V22.0335H92.0719V13.4858H89.4082V11.0157H93.4057ZM82.1317 13.8441H87.8843V16.3132H82.1317V22.0335H79.3816V7.72353H88.7386V10.1932H82.1317V13.8441ZM72.8338 22.4133C71.396 22.4133 70.2498 21.5697 69.8334 20.3244H69.7499V26.3819H67.0823V11.1428H69.7499V12.958H69.8334C70.2293 11.6912 71.396 10.8891 72.8338 10.8891C75.585 10.8891 77.1065 12.958 77.1065 16.6304C77.1065 20.3244 75.585 22.4133 72.8338 22.4133ZM74.3138 15.7018C74.3138 14.1403 73.3548 13.1056 71.98 13.1056C70.7083 13.1056 69.7499 13.8021 69.7499 14.8783V18.3826C69.7499 19.5219 70.7083 20.1758 71.98 20.1758C73.3548 20.1758 74.3138 19.1636 74.3138 17.6011V15.7018ZM61.7818 20.2608H61.6567C61.3029 21.6753 60.1147 22.4133 58.4891 22.4133C56.2805 22.4133 55.0298 21.1259 55.0298 19.1636C55.0298 16.9046 56.7179 15.7859 59.6773 15.7859H61.5321V14.9843C61.5321 13.76 60.9275 13.0421 59.5101 13.0421C58.2599 13.0421 57.5517 13.6755 57.0302 14.4355L55.4467 13C56.2385 11.7337 57.5097 10.8891 59.6978 10.8891C62.6366 10.8891 64.1997 12.3036 64.1997 14.8152V20.0072H65.2827V22.1601H63.8033C62.6572 22.1601 61.9485 21.4001 61.7818 20.2608ZM61.5321 17.4115H59.8229C58.4266 17.4115 57.7389 17.8968 57.7389 18.7623V19.1211C57.7389 20.0072 58.3435 20.4505 59.3855 20.4505C60.5736 20.4505 61.5321 19.9021 61.5321 18.8684V17.4115ZM46.5823 17.6011C46.5823 19.1846 47.4787 20.2608 49.2289 20.2608C50.5421 20.2608 51.3334 19.6274 52.0006 18.7623L53.4384 20.3874C52.5421 21.6328 50.9585 22.4133 48.9371 22.4133C45.728 22.4133 43.8106 20.1553 43.8106 16.6304C43.8106 13.1481 45.6654 10.8891 48.854 10.8891C52.2508 10.8891 53.8133 13.4223 53.8133 16.4408V17.3274H46.5823V17.6011ZM51.0416 15.6593V15.4697C51.0416 13.9497 50.2709 12.916 48.8951 12.916C47.4992 12.916 46.5823 13.9707 46.5823 15.4907V15.6593H51.0416ZM33.959 7.85012H36.7092V19.6905H42.4402V22.1601H33.959V7.85012Z" fill="#080C12"/>
<path fill-rule="evenodd" clip-rule="evenodd" d="M22.5923 23.3111C19.7269 25.9428 16.4991 28.1502 13.0075 29.8662L12.5759 30.0778C12.437 30.1463 12.2841 30.182 12.1292 30.182C11.9743 30.182 11.8214 30.1463 11.6825 30.0778L11.2509 29.8662C7.75928 28.1502 4.53154 25.9428 1.66613 23.3111C1.14204 22.8286 0.723599 22.2428 0.437176 21.5905C0.150753 20.9383 0.00256499 20.2338 0.00195312 19.5214V8.42538C0.00195312 8.33203 0.0141718 8.24308 0.0366541 8.15853C-0.000147575 8.00939 -0.002987 7.85389 0.0283454 7.70351C0.0957923 7.40781 0.303509 7.16442 0.567921 7.01975L11.6434 0.975428C11.7924 0.894151 11.9595 0.851563 12.1292 0.851562C12.299 0.851562 12.466 0.894151 12.615 0.975428L21.78 5.97725L23.7232 7.03734C23.8851 7.12613 24.02 7.25684 24.1139 7.41577C24.2078 7.57469 24.2572 7.75596 24.257 7.94055V19.5214C24.2563 20.2338 24.1081 20.9384 23.8216 21.5906C23.5351 22.2429 23.1165 22.8287 22.5923 23.3111ZM3.03951 21.7936C5.75739 24.2893 8.81829 26.3834 12.1292 28.0124C15.4403 26.3836 18.5013 24.2893 21.2189 21.7931C21.5333 21.504 21.7845 21.1529 21.9564 20.7619C22.1284 20.3709 22.2174 19.9485 22.2179 19.5214V9.50796L19.8128 10.5969V16.3465C19.8128 17.324 19.4003 18.2638 18.6808 18.9241C16.9331 20.529 14.9644 21.8753 12.835 22.9221L12.5759 23.0487C12.437 23.1175 12.284 23.1533 12.129 23.1533C11.9739 23.1533 11.8209 23.1175 11.682 23.0487L11.4235 22.9221C9.29397 21.8753 7.32536 20.529 5.57757 18.9241C5.22107 18.596 4.93644 18.1975 4.74162 17.7539C4.5468 17.3102 4.44602 16.831 4.44563 16.3465V10.5969L2.04051 9.52066V19.5214C2.04051 20.3821 2.40463 21.211 3.03951 21.7936ZM12.0109 13.9262C11.9091 13.9159 11.8094 13.8902 11.7152 13.85L6.48468 11.5094V16.3465C6.48468 16.7478 6.65427 17.1339 6.95094 17.4061C8.47105 18.8001 10.1732 19.9814 12.0109 20.9177V13.9262ZM12.1292 3.04625L3.32836 7.84915L12.1292 11.788L20.9095 7.8384L20.8088 7.78317L12.1292 3.04625Z" fill="#080C12"/>
</g>
<defs>
<clipPath id="clip0">
<rect width="152" height="29.3248" fill="white" transform="translate(0 0.858398)"/>
</clipPath>
</defs>
</svg>
