<svg width="128" height="18" viewBox="0 0 128 18" fill="none" xmlns="http://www.w3.org/2000/svg">
<path d="M38.4489 0.50293C36.5613 0.50293 35.1024 1.19011 33.987 2.30552C32.3568 3.93573 32.3553 5.99438 32.3553 8.9116C32.3553 11.743 32.271 13.8042 33.987 15.5202C35.1882 16.7214 36.5613 17.3203 38.4489 17.3203C38.9637 17.3203 39.3916 17.2352 39.8206 17.1494H45.3966L43.7674 14.3168C44.5396 12.8582 44.5399 11.1424 44.5399 8.9116C44.5399 6.08018 44.5384 4.02153 42.9082 2.30552C41.7928 1.10431 40.3365 0.50293 38.4489 0.50293ZM72.2544 0.50293C70.3668 0.50293 68.9079 1.10431 67.7925 2.30552C66.0765 4.02153 66.1608 6.08018 66.1608 8.9116C66.1608 11.8288 66.1623 13.89 67.7925 15.5202C68.9079 16.6356 70.3668 17.3203 72.2544 17.3203C74.142 17.3203 75.5983 16.7214 76.7137 15.5202C78.3439 13.8042 78.3454 11.743 78.3454 8.9116C78.3454 5.99438 78.3439 3.93573 76.7137 2.30552C75.5125 1.19011 74.142 0.50293 72.2544 0.50293ZM6.70093 0.589617C3.0973 0.589617 0.954068 2.64927 0.954068 5.56649C0.954068 6.9393 1.38274 8.05526 2.15494 8.82746C2.84135 9.51387 3.95642 10.0276 5.32923 10.1992L7.30264 10.4567C8.07484 10.6283 8.41782 10.7152 8.76102 11.0584C9.10423 11.4016 9.27605 11.8295 9.27605 12.4301C9.27605 13.8029 8.24689 14.4902 6.35928 14.4902C4.90067 14.4902 3.44206 14.1455 2.41245 13.1159L0.352356 15.176C1.98257 16.8062 3.87106 17.3203 6.35928 17.3203C9.7913 17.3203 12.537 15.518 12.537 12.3434C12.537 10.8848 12.1075 9.68547 11.2495 8.82746C10.5631 8.14106 9.61959 7.7115 8.07518 7.5399L6.10176 7.28239C5.41536 7.11079 4.89989 6.93974 4.55669 6.59654C4.21349 6.25334 4.04167 5.82467 4.04167 5.39566C4.04167 4.28026 4.90078 3.33556 6.61679 3.33556C7.6464 3.33556 8.93229 3.42014 9.9619 4.44975L12.022 2.47634C10.6492 1.10353 8.93174 0.589617 6.70093 0.589617ZM17.1697 0.676304V17.1494H28.0668V14.3168H20.4307V10.2858H26.9501V7.36907H20.4307V3.50639H28.0668V0.676304L17.1697 0.676304ZM49.3434 0.676304V11.4867C49.3434 15.0045 52.0908 17.3203 55.437 17.3203C58.7833 17.3203 61.4414 15.0045 61.4414 11.4867V0.676304H58.2671V11.4C58.2671 13.2876 57.1531 14.4035 55.437 14.4035C53.721 14.4035 52.6044 13.2876 52.6044 11.4V0.676304L49.3434 0.676304ZM83.0648 0.676304V17.1494H86.2391V0.676304L83.0648 0.676304ZM96.277 0.676304L90.27 17.1494H93.6177L94.6477 14.2327H100.481L101.425 17.1494H104.772L98.7654 0.676304L96.277 0.676304ZM38.3622 3.42225C39.2202 3.42225 39.9933 3.76412 40.4223 4.27893C41.0229 4.96533 41.1923 5.73698 41.1923 8.9116C41.1923 12.0862 41.0229 12.8604 40.4223 13.5468C39.9933 14.0616 39.2202 14.4035 38.3622 14.4035C37.5042 14.4035 36.7311 14.0616 36.3021 13.5468C35.7015 12.8604 35.5296 12.0862 35.5296 8.9116C35.5296 5.73698 35.7015 4.96533 36.3021 4.27893C36.7311 3.76412 37.5042 3.42225 38.3622 3.42225V3.42225ZM72.2544 3.42225C73.1124 3.42225 73.8829 3.76412 74.3119 4.27893C74.9125 4.96533 75.0845 5.73698 75.0845 8.9116C75.0845 12.0862 74.9125 12.8604 74.3119 13.5468C73.8829 14.0616 73.1124 14.4035 72.2544 14.4035C71.3964 14.4035 70.6233 14.0616 70.1943 13.5468C69.5937 12.8604 69.4217 12.0862 69.4217 8.9116C69.4217 5.73698 69.5937 4.96533 70.1943 4.27893C70.6233 3.76412 71.3964 3.42225 72.2544 3.42225ZM97.5645 5.4798L99.6246 11.4867H95.5044L97.5645 5.4798Z" fill="#080C12"/>
<path d="M111.291 0.675781V15.6905L113.351 13.6304V0.675781H111.291ZM115.411 0.675781V11.5729L117.469 9.51279V0.675781H115.411ZM119.529 0.675781V7.45269L121.589 5.39514V0.675781H119.529ZM123.647 0.675781V4.79343H127.764V0.675781H123.647ZM123.047 6.85353L120.987 8.91107H127.764V6.85353H123.047ZM118.927 10.9712L116.87 13.0313H127.764V10.9712H118.927ZM114.81 15.0888L112.749 17.1489H127.764V15.0888H114.81Z" fill="#080C12"/>
</svg>
