<svg width="120" height="37" viewBox="0 0 120 37" fill="none" xmlns="http://www.w3.org/2000/svg">
<path d="M12.3163 35.9669C12.294 35.9513 12.2695 35.93 12.2437 35.9075C11.827 35.391 9.24963 32.1624 6.6235 28.0213C5.83581 26.7018 5.32432 25.6727 5.42254 25.4065C5.67946 24.7146 10.2577 24.3358 11.6677 24.9631C12.0964 25.1536 12.0856 25.4056 12.0856 25.5524C12.0856 26.1859 12.0543 27.8856 12.0543 27.8856C12.0546 28.2368 12.3401 28.5217 12.6917 28.5211C13.0439 28.5211 13.3283 28.2351 13.3271 27.883L13.3204 23.6477H13.3193C13.3193 23.2801 12.918 23.1883 12.8426 23.174C12.1066 23.1695 10.6122 23.165 9.00758 23.165C5.4669 23.165 4.67569 23.3104 4.07418 22.9171C2.7709 22.0649 0.639922 16.3212 0.590225 13.0896C0.519482 8.5306 3.22074 4.5837 7.02446 2.62809C8.61358 1.82794 10.4085 1.37695 12.3042 1.37695C18.3246 1.37695 23.2825 5.92108 23.9422 11.7675C23.9428 11.7719 23.9428 11.7785 23.944 11.783C24.065 13.1964 16.2751 13.4967 14.7342 13.0855C14.4981 13.0223 14.4376 12.7805 14.4376 12.6764C14.4358 11.6017 14.4287 8.57712 14.4287 8.57712C14.4275 8.22561 14.1419 7.94051 13.7903 7.9414H13.7897C13.4387 7.94198 13.1537 8.22765 13.1537 8.57976L13.1671 14.1513C13.1782 14.5022 13.4725 14.5969 13.5532 14.6127C14.4294 14.613 16.4786 14.6109 18.3872 14.6109C20.9669 14.6109 22.0503 14.9099 22.7714 15.4588C23.2507 15.8244 23.4363 16.5242 23.2741 17.4337C21.8277 25.5246 12.662 35.5486 12.3177 35.9665L12.3163 35.9669ZM37.1743 17.0835C39.4868 18.0746 40.9196 19.1742 40.9196 21.5878C40.9196 24.0535 39.0519 25.6461 36.1622 25.6461C33.8204 25.6461 31.9408 24.5854 31.0046 22.7353L30.8531 22.437L33.6063 20.8418L33.7868 21.1365C34.4067 22.1499 35.0997 22.5819 36.1051 22.5819C36.9717 22.5819 37.554 22.1979 37.554 21.6258C37.554 20.9921 37.1325 20.7546 35.8298 20.1843L35.1678 19.9003C33.4009 19.1473 31.7642 18.1009 31.7642 15.5666C31.7642 13.289 33.51 11.6983 36.0098 11.6983C37.9038 11.6983 39.2018 12.4315 40.0953 14.0049L40.2611 14.297L37.5934 16.0114L37.4097 15.6824C36.9637 14.8846 36.5436 14.7246 36.0099 14.7246C35.452 14.7246 35.0925 15.0322 35.0925 15.5095C35.0925 16.0579 35.3573 16.2985 36.5115 16.7986L37.1743 17.0835ZM56.6629 17.5501L58.6065 12.1305H61.9426L56.9984 25.8697H56.2575L53.2584 19.4353C53.1189 19.1405 52.9752 18.7743 52.8512 18.4389C52.7244 18.7749 52.5771 19.1419 52.4374 19.4367L49.3211 25.8697H48.5851L43.5617 12.1305H47.1255L49.0905 17.5501C49.216 17.8958 49.3445 18.3172 49.457 18.7082C49.5905 18.3046 49.751 17.8689 49.9188 17.5177L52.4996 12.0173H53.2137L55.8345 17.5182C56.0016 17.8692 56.1628 18.3052 56.2958 18.7088C56.4088 18.3172 56.5384 17.8958 56.6629 17.5501ZM65.833 25.4752V11.8497H69.2001V25.4752H65.833ZM80.2399 20.8973V17.8523H86.4921V23.959L86.3628 24.0655C85.6476 24.6527 83.7513 25.6462 81.1824 25.6462C76.8488 25.6462 73.8234 22.7747 73.8234 18.6631C73.8234 14.6276 76.7427 11.6984 80.7651 11.6984C82.9771 11.6984 84.5983 12.3219 85.7207 13.6049L85.9398 13.8555L83.6448 16.1276L83.3955 15.8708C82.7545 15.2098 82.0905 14.8004 80.765 14.8004C78.7047 14.8004 77.2655 16.3887 77.2655 18.6631C77.2655 21.0322 78.8023 22.5635 81.1823 22.5635C81.9718 22.5635 82.7937 22.4276 83.3531 22.2102V20.8974L80.2399 20.8973ZM97.3029 20.8973V17.8523H103.555V23.959L103.426 24.0655C102.71 24.6527 100.814 25.6462 98.246 25.6462C93.9124 25.6462 90.8864 22.7747 90.8864 18.6631C90.8864 14.6276 93.8063 11.6984 97.8275 11.6984C100.041 11.6984 101.662 12.3219 102.784 13.6049L103.003 13.8555L100.709 16.1276L100.459 15.8708C99.8178 15.2098 99.1535 14.8004 97.8274 14.8004C95.7677 14.8004 94.3286 16.3887 94.3286 18.6631C94.3286 21.0322 95.866 22.5635 98.246 22.5635C99.0355 22.5635 99.8567 22.4276 100.416 22.2102V20.8974L97.3029 20.8973ZM115.892 11.8498H119.412L114.581 20.9167V25.4753H111.196V21.1102L106.05 11.8498H109.805L112.184 16.1941C112.439 16.6667 112.706 17.2914 112.908 17.7986C113.101 17.2955 113.357 16.6764 113.611 16.1983L115.892 11.8498Z" fill="#080C12"/>
</svg>
