<svg width="88" height="32" viewBox="0 0 88 32" fill="none" xmlns="http://www.w3.org/2000/svg">
<g clip-path="url(#clip0)">
<path d="M5.06293 22.3726C5.43481 23.3595 5.94967 24.2034 6.6076 24.9041C7.26553 25.605 8.04498 26.1413 8.94596 26.5131C9.84703 26.885 10.8267 27.0709 11.8851 27.0709C12.9149 27.0709 13.8803 26.8778 14.7813 26.4916C15.6824 26.1054 16.469 25.5619 17.1411 24.8612C17.8133 24.1604 18.3354 23.3237 18.7073 22.3512C19.0791 21.3786 19.265 20.2918 19.265 19.0903V0.554688H23.7702V30.5892H19.3079V27.8002C18.3068 28.8585 17.1268 29.6738 15.7681 30.246C14.4093 30.818 12.9435 31.104 11.3702 31.104C9.76833 31.104 8.27379 30.8251 6.88644 30.2673C5.49918 29.7096 4.29772 28.9159 3.28234 27.8861C2.26697 26.8563 1.46596 25.6193 0.879615 24.1747C0.293173 22.7302 0 21.1212 0 19.3477V0.554688H4.50516V19.0903C4.50516 20.2918 4.69106 21.3857 5.06293 22.3726Z" fill="#010202"/>
<path d="M31.5366 0.554688V11.4958C32.5378 10.4947 33.6963 9.70097 35.0121 9.11453C36.3279 8.52809 37.7581 8.23491 39.3027 8.23491C40.9046 8.23491 42.4062 8.53521 43.8079 9.13589C45.2094 9.73657 46.4251 10.5518 47.4549 11.5816C48.4847 12.6114 49.2999 13.827 49.9006 15.2286C50.5013 16.6303 50.8016 18.1177 50.8016 19.691C50.8016 21.2641 50.5013 22.7444 49.9006 24.1317C49.2999 25.519 48.4847 26.7276 47.4549 27.7572C46.4251 28.787 45.2094 29.6023 43.8079 30.203C42.4062 30.8037 40.9045 31.1039 39.3027 31.1039C37.758 31.1039 36.3207 30.8108 34.9906 30.2243C33.6605 29.638 32.4949 28.8442 31.4937 27.8431V30.5891H27.2031V0.554688H31.5366ZM32.03 22.6515C32.4162 23.5669 32.9526 24.3678 33.6391 25.0543C34.3256 25.7408 35.1265 26.2843 36.0418 26.6848C36.9572 27.0853 37.944 27.2855 39.0024 27.2855C40.0322 27.2855 41.0047 27.0853 41.92 26.6848C42.8353 26.2843 43.629 25.7409 44.3013 25.0543C44.9735 24.3679 45.5098 23.5669 45.9103 22.6515C46.3107 21.7362 46.511 20.7494 46.511 19.691C46.511 18.6326 46.3107 17.6386 45.9103 16.7089C45.5098 15.7793 44.9735 14.9713 44.3013 14.2847C43.6291 13.5983 42.8354 13.0619 41.92 12.6758C41.0046 12.2897 40.0321 12.0965 39.0024 12.0965C37.9727 12.0965 37.0001 12.2896 36.0848 12.6758C35.1695 13.062 34.3686 13.5983 33.682 14.2847C32.9956 14.9713 32.452 15.7793 32.0516 16.7089C31.6511 17.6386 31.4509 18.6326 31.4509 19.691C31.4508 20.7494 31.6439 21.7362 32.03 22.6515Z" fill="#010202"/>
<path d="M53.2466 15.271C53.8186 13.898 54.6054 12.6895 55.6065 11.6454C56.6075 10.6014 57.7947 9.779 59.1677 9.17832C60.5407 8.57764 62.0282 8.27734 63.63 8.27734C65.2032 8.27734 66.6621 8.5634 68.0065 9.13541C69.3508 9.70751 70.5093 10.5013 71.4819 11.5168C72.4544 12.5322 73.2125 13.7336 73.7559 15.1209C74.2994 16.5082 74.5711 18.0171 74.5711 19.6476V21.0635H56.765C56.9081 21.9502 57.1941 22.7726 57.6232 23.5305C58.0523 24.2885 58.5885 24.9464 59.2321 25.5042C59.8757 26.0621 60.6051 26.4983 61.4204 26.8129C62.2356 27.1275 63.1008 27.2849 64.0162 27.2849C66.6193 27.2849 68.7217 26.2122 70.3235 24.0668L73.4557 26.3837C72.3687 27.8426 71.0243 28.9868 69.4225 29.8163C67.8206 30.6458 66.0186 31.0605 64.0163 31.0605C62.3858 31.0605 60.8627 30.7744 59.4468 30.2024C58.0308 29.6304 56.8009 28.8294 55.7568 27.7996C54.7128 26.7698 53.8904 25.5613 53.2897 24.174C52.6891 22.7868 52.3887 21.2778 52.3887 19.6474C52.3885 18.1028 52.6746 16.644 53.2466 15.271ZM59.275 13.5761C58.0593 14.5916 57.2513 15.9431 56.8508 17.6308H70.1948C69.8229 15.9431 69.0291 14.5916 67.8134 13.5761C66.5977 12.5607 65.1747 12.053 63.5443 12.053C61.9138 12.053 60.4907 12.5607 59.275 13.5761Z" fill="#010202"/>
<path d="M82.6793 14.0701C81.764 15.0713 81.3063 16.4299 81.3063 18.1463V30.5892H76.9727V8.7069H81.2633V11.41C81.8068 10.5233 82.5148 9.82244 83.3872 9.30758C84.2596 8.79263 85.2965 8.53516 86.4979 8.53516H87.9996V12.5684H86.1976C84.7674 12.5685 83.5946 13.069 82.6793 14.0701Z" fill="#010202"/>
</g>
<defs>
<clipPath id="clip0">
<rect width="88" height="30.5494" fill="white" transform="translate(0 0.554688)"/>
</clipPath>
</defs>
</svg>
