<svg width="119" height="29" viewBox="0 0 119 29" fill="none" xmlns="http://www.w3.org/2000/svg">
<g clip-path="url(#clip0)">
<path d="M69.0207 15.1834C69.0207 12.3656 67.8145 9.87598 63.7351 9.87598C61.6422 9.87598 59.9795 10.4725 59.0781 10.9946L59.7388 13.2553C60.5688 12.7346 61.893 12.3058 63.1429 12.3058C65.2082 12.3029 65.5465 13.4712 65.5465 14.2223V14.4031C61.0383 14.3958 58.1885 15.9535 58.1885 19.1257C58.1885 21.0641 59.6353 22.8813 62.1643 22.8813C63.7074 22.8813 65.0113 22.2586 65.7901 21.2755H65.8659C65.8659 21.2755 66.3794 23.4239 69.219 22.6028C69.0746 21.7029 69.0207 20.7549 69.0207 19.6027V15.1834ZM65.6575 18.1587C65.6575 18.3863 65.6385 18.6225 65.5714 18.8253C65.3117 19.6931 64.4163 20.4194 63.3019 20.4194C62.3613 20.4194 61.6232 19.8871 61.6232 18.7713C61.6232 17.0649 63.5076 16.5952 65.6575 16.6069" fill="#080C12"/>
<path d="M0 6.04248C0 6.04248 2.94467 18.0896 3.41286 20.0411C3.96416 22.3222 4.95156 23.1652 7.80147 22.6036L9.64207 15.1333C10.1073 13.2824 10.4238 11.9552 10.7243 10.0694H10.7753C10.9839 11.9742 11.2843 13.2824 11.665 15.1391C11.665 15.1391 12.4161 18.533 12.8055 20.3109C13.1847 22.0888 14.2523 23.2104 17.0483 22.6036L21.4296 6.04248H17.8927L16.3891 13.2066C15.9909 15.282 15.6291 16.917 15.3477 18.8189H15.2966C15.0429 16.9374 14.7205 15.3695 14.3063 13.3364L12.7487 6.04248H9.05869L7.39598 13.1497C6.92196 15.3199 6.4786 17.0599 6.20001 18.902H6.1519C5.86459 17.1737 5.47517 14.9728 5.06239 12.8843C5.06239 12.8843 4.07499 7.79559 3.72643 6.04248" fill="#080C12"/>
<path d="M31.2863 15.1834C31.2863 12.3656 30.0771 9.87598 25.9977 9.87598C23.9107 9.87598 22.2451 10.4725 21.3438 10.9946L22.0044 13.2553C22.8314 12.7346 24.1543 12.3058 25.4086 12.3058C27.4738 12.3029 27.8121 13.4712 27.8121 14.2223V14.4031C23.304 14.3958 20.4512 15.9535 20.4512 19.1257C20.4512 21.0641 21.9038 22.8813 24.4212 22.8813C25.9788 22.8813 27.2711 22.2586 28.0499 21.2755H28.1286C28.1286 21.2755 28.6449 23.4239 31.4817 22.6028C31.3359 21.7029 31.2863 20.7549 31.2863 19.6027V15.1834ZM27.9201 18.1587C27.9201 18.3863 27.9011 18.6225 27.837 18.8253C27.5744 19.6931 26.6789 20.4194 25.5617 20.4194C24.6268 20.4194 23.8859 19.8871 23.8859 18.7713C23.8859 17.0649 25.7702 16.5952 27.9201 16.6069" fill="#080C12"/>
<path d="M33.1211 6.04248V22.5978H36.4873V19.0872V6.04248H33.1211Z" fill="#080C12"/>
<path d="M79.3516 6.04248V18.2573C79.3516 19.9434 79.668 21.1189 80.3491 21.8394C80.9471 22.4709 81.9257 22.8822 83.0911 22.8822C84.0917 22.8822 85.0702 22.6897 85.5326 22.522L85.4918 19.8923C85.1461 19.9725 84.7508 20.0411 84.2083 20.0411C83.059 20.0411 82.6798 19.3133 82.6798 17.7994V13.1235H85.6114V9.95999H82.6798V6.04248" fill="#080C12"/>
<path d="M70.6514 10.1633V22.6028H74.1313V16.2321C74.1313 15.8894 74.1531 15.5933 74.2072 15.3191C74.4667 13.9758 75.4862 13.1255 76.9549 13.1255C77.3647 13.1255 77.6433 13.1708 77.9525 13.2189V9.9577C77.6929 9.91103 77.5164 9.88623 77.197 9.88623C75.8946 9.88623 74.4186 10.7132 73.7958 12.5144H73.7098V10.1633" fill="#080C12"/>
<path d="M38.4424 10.1633V22.6028H41.8333V15.3016C41.8333 14.9589 41.8712 14.6088 41.9923 14.2923C42.268 13.5529 42.952 12.6967 44.0502 12.6967C45.4153 12.6967 46.06 13.8489 46.06 15.5116V22.6028H49.4423V15.2141C49.4423 14.8918 49.4875 14.4965 49.5822 14.2107C49.8536 13.372 50.5945 12.6967 51.6184 12.6967C52.9981 12.6967 53.6661 13.8242 53.6661 15.7844V22.6028H57.0454V15.2681C57.0454 11.4147 55.0851 9.88623 52.8595 9.88623C51.8809 9.88623 51.1021 10.1269 50.4019 10.5586C49.8098 10.9218 49.2906 11.4337 48.8253 12.1031H48.7743C48.239 10.7642 46.9818 9.88623 45.3395 9.88623C43.2335 9.88623 42.2767 10.9495 41.7137 11.8479H41.6627V10.1633" fill="#080C12"/>
<path d="M103.823 9.60513C104.488 9.60513 105.048 9.25801 105.121 8.81171L105.78 1.34424C105.78 0.604787 104.909 -0.000488281 103.823 -0.000488281C102.73 -0.000488281 101.865 0.604787 101.865 1.34424L102.53 8.81171C102.6 9.25801 103.157 9.60513 103.823 9.60513Z" fill="#080C12"/>
<path d="M99.7781 11.9415C100.108 11.3581 100.089 10.7105 99.7329 10.4217L93.578 6.11772C92.9378 5.74435 91.9795 6.18919 91.4311 7.13137C90.8842 8.07209 90.995 9.12804 91.6221 9.49413L98.4362 12.6532C98.8723 12.8166 99.4426 12.5132 99.7781 11.9356" fill="#080C12"/>
<path d="M107.867 11.9354C108.216 12.513 108.786 12.8163 109.21 12.6617L116.025 9.49388C116.658 9.12051 116.752 8.07477 116.217 7.13404C115.67 6.19186 114.706 5.74994 114.067 6.11602L107.911 10.4156C107.57 10.7088 107.545 11.3593 107.874 11.9412" fill="#080C12"/>
<path d="M103.823 18.9331C104.488 18.9331 105.048 19.2802 105.121 19.7265L105.78 27.194C105.78 27.9335 104.909 28.5329 103.823 28.5329C102.73 28.5329 101.865 27.9335 101.865 27.194L102.53 19.7265C102.6 19.2802 103.157 18.9331 103.823 18.9331Z" fill="#080C12"/>
<path d="M107.867 16.6028C108.216 16.0238 108.786 15.7146 109.21 15.8823L116.025 19.0444C116.658 19.4104 116.752 20.4649 116.217 21.4071C115.67 22.342 114.706 22.7868 114.067 22.4208L107.911 18.1153C107.57 17.8251 107.545 17.1775 107.874 16.6028" fill="#080C12"/>
<path d="M99.7781 16.5961C100.108 17.1781 100.089 17.8242 99.7329 18.1159L93.578 22.4141C92.9378 22.7874 91.9795 22.3411 91.4311 21.4062C90.8842 20.4655 90.995 19.4096 91.6221 19.0435L98.4362 15.8815C98.8723 15.7152 99.4426 16.0215 99.7781 16.5961Z" fill="#080C12"/>
<path d="M118.018 21.7655H118.102C118.218 21.7655 118.264 21.8019 118.277 21.8938C118.302 21.9959 118.315 22.0644 118.34 22.0936H118.559C118.54 22.0717 118.515 22.0163 118.502 21.888C118.477 21.7771 118.42 21.7144 118.34 21.6925V21.6721C118.451 21.6473 118.515 21.5729 118.515 21.481C118.515 21.3979 118.477 21.3381 118.439 21.3002C118.366 21.2652 118.296 21.2375 118.142 21.2375C118.005 21.2375 117.904 21.2491 117.824 21.2681V22.0936H118.018V21.7655ZM118.024 21.3892L118.123 21.376C118.24 21.376 118.302 21.43 118.302 21.5058C118.302 21.5904 118.218 21.6298 118.11 21.6298H118.024V21.3892ZM118.148 20.8291C117.669 20.8291 117.29 21.2025 117.29 21.6604C117.29 22.1301 117.669 22.5034 118.148 22.5034C118.632 22.5034 118.999 22.1301 118.999 21.6604C118.999 21.2025 118.632 20.8291 118.148 20.8291ZM118.148 20.9968C118.515 20.9968 118.788 21.2944 118.788 21.6604C118.788 22.0294 118.515 22.3357 118.148 22.3299C117.78 22.3299 117.501 22.0294 117.501 21.6604C117.501 21.2944 117.78 20.9968 118.142 20.9968" fill="#080C12"/>
</g>
<defs>
<clipPath id="clip0">
<rect width="119" height="28.5332" fill="white"/>
</clipPath>
</defs>
</svg>
