<svg width="113" height="24" viewBox="0 0 113 24" fill="none" xmlns="http://www.w3.org/2000/svg">
<path d="M9.6854 11.562C10.3742 11.562 10.9754 11.586 11.5082 11.6832C12.2666 11.8164 12.9086 12.8736 12.9086 13.3896C12.9086 13.6536 12.9086 13.9464 12.7934 14.3736C12.6062 15.0288 11.3198 17.3856 10.7846 18.2724C10.1402 17.2272 8.6234 14.2752 8.099 13.1256C7.871 12.6432 7.7558 12.2424 7.7558 12.0456C7.7558 11.6832 8.47581 11.562 9.6854 11.562ZM1.0898 11.562C1.733 11.7216 2.1098 11.8548 2.6378 12.8004C4.4966 16.212 6.3578 19.9728 8.1686 23.6724C8.3966 23.8644 8.66301 23.9076 9.04821 23.9076C9.42021 23.9076 9.68421 23.8644 9.92181 23.6736C10.7846 22.0452 13.061 17.6748 14.0426 15.978C15.185 18.0756 17.1518 21.9036 17.9498 23.6736C18.1706 23.8656 18.4442 23.9076 18.8174 23.9076C19.1954 23.9076 19.4678 23.8644 19.6874 23.6736C21.2941 20.1585 22.9878 16.6838 24.767 13.2528C25.3742 12.0456 25.637 11.7216 26.8886 11.4888L27.419 11.3952C27.7214 11.0916 27.6434 10.38 27.3074 10.2432C26.4734 10.3092 25.4894 10.3428 24.3842 10.3428C23.4386 10.3428 22.5362 10.3092 21.281 10.2432C20.9018 10.38 20.9018 11.1612 21.1334 11.3952L21.7718 11.5188C22.4234 11.652 22.721 11.8164 22.721 11.9832C22.721 12.2124 22.6058 12.6708 22.3706 13.2528C21.7718 14.7684 21.1778 16.3752 20.2574 18.2724C19.427 16.6956 18.3686 14.5716 17.6822 12.9972C17.459 12.444 17.3822 12.2412 17.3822 11.9832C17.3822 11.8164 17.9066 11.652 18.7838 11.4888L19.3478 11.3952C19.6214 11.262 19.6502 10.2828 19.235 10.2432C17.0004 10.3091 14.7649 10.3423 12.5294 10.3428H4.877C3.2858 10.3428 2.0762 10.3092 0.523403 10.2432C0.135803 10.4076 0.135803 11.1276 0.398603 11.3952L1.0898 11.562Z" fill="#080C12"/>
<path d="M32.7391 11.3521C34.0219 11.3521 34.7467 12.0661 34.7467 13.1497C34.7467 13.4785 34.6711 13.8097 34.4827 13.9033C34.0591 14.1337 33.4543 14.1949 32.9251 14.1949H31.5259C30.3067 14.1949 29.7835 14.1709 29.7835 13.7065C29.7835 12.6553 31.1479 11.3509 32.7403 11.3509L32.7391 11.3521ZM32.6995 23.8633C34.9711 23.8633 37.7827 22.9117 39.3319 20.1289C39.3319 19.5709 38.7571 19.3069 38.3455 19.3681C37.3219 20.8813 35.8771 21.0721 34.8199 21.0721C31.2991 21.0721 29.4751 18.6853 29.4751 16.2289C29.4751 15.7057 29.5543 15.6409 30.4279 15.6409H37.6939C38.8771 15.6409 39.0619 15.1825 39.0619 14.5609C39.0619 12.0349 36.9379 9.84131 32.9971 9.84131C28.2691 9.84131 24.8203 13.0537 24.8203 17.1829C24.8203 20.7529 27.5863 23.8633 32.6995 23.8633ZM48.7399 11.5621C49.4323 11.5621 50.0335 11.5861 50.5663 11.6833C51.3247 11.8165 51.9679 12.8737 51.9679 13.3897C51.9679 13.6537 51.9679 13.9465 51.8551 14.3737C51.6607 15.0289 50.3755 17.3857 49.8475 18.2725C49.1959 17.2273 47.6875 14.2753 47.1571 13.1257C46.9339 12.6433 46.8151 12.2425 46.8151 12.0457C46.8151 11.6833 47.5303 11.5621 48.7399 11.5621ZM40.1455 11.5621C40.7947 11.7217 41.1679 11.8549 41.6983 12.8005C43.5511 16.2121 45.4171 19.9729 47.2303 23.6725C47.4607 23.8645 47.7247 23.9077 48.1039 23.9077C48.4795 23.9077 48.7399 23.8645 48.9727 23.6737C49.8487 22.0453 52.1167 17.6749 53.1043 15.9781C54.2443 18.0757 56.2051 21.9037 57.0031 23.6737C57.2311 23.8657 57.4951 23.9077 57.8719 23.9077C58.2547 23.9077 58.5211 23.8645 58.7455 23.6737C60.3542 20.1591 62.0487 16.6845 63.8275 13.2529C64.4335 12.0457 64.6951 11.7217 65.9443 11.4889L66.4795 11.3953C66.7783 11.0917 66.6991 10.3801 66.3631 10.2433C65.5255 10.3093 64.5463 10.3429 63.4423 10.3429C62.4072 10.338 61.3724 10.3047 60.3391 10.2433C59.9551 10.3801 59.9551 11.1613 60.1879 11.3953L60.8311 11.5189C61.4767 11.6521 61.7767 11.8165 61.7767 11.9833C61.7767 12.2125 61.6627 12.6709 61.4395 13.2529C60.8311 14.7685 60.2239 16.3753 59.3119 18.2725C58.4815 16.6957 57.4231 14.5717 56.7415 12.9973C56.5111 12.4441 56.4355 12.2413 56.4355 11.9833C56.4355 11.8165 56.9623 11.6521 57.8395 11.4889L58.4035 11.3953C58.6699 11.2621 58.7095 10.2829 58.2907 10.2433C55.8691 10.3093 53.9683 10.3429 51.5851 10.3429H43.9315C42.4798 10.3431 41.0282 10.3099 39.5779 10.2433C39.2023 10.4077 39.2023 11.1277 39.4663 11.3953L40.1455 11.5621Z" fill="#080C12"/>
<path d="M72.5792 11.3521C74.7308 11.3521 75.7928 14.0977 75.8348 17.2801C75.8672 20.2297 75.1436 22.3573 72.9824 22.3573C70.7948 22.3573 69.5384 19.8301 69.5384 16.3957C69.5384 12.8293 70.91 11.3509 72.5792 11.3509V11.3521ZM72.5792 23.8633C77.2328 23.8633 81.29 21.6049 81.29 16.8157C81.29 12.1981 77.2676 9.84131 72.8012 9.84131C68.3288 9.84131 64.0472 12.4273 64.0832 17.1157C64.1276 21.6325 68.0624 23.8633 72.5792 23.8633Z" fill="#080C12"/>
<path d="M87.7424 12.6168C87.9764 12.6168 88.3124 12.6528 89.18 13.272C89.666 13.668 90.122 13.8648 90.656 13.8648C91.8656 13.8648 93.0836 13.2432 93.0836 11.7348C93.0836 10.4976 92.0228 9.80278 90.992 9.80278C89.4068 9.80278 88.3124 10.8828 87.2828 11.4372C86.9828 11.3772 86.9036 11.2776 86.9036 11.046C86.9036 10.7532 86.9816 10.2984 87.0512 9.63718C86.9036 9.44278 86.6708 9.33838 86.3792 9.33838C85.1996 10.0032 82.5872 10.8828 80.8388 11.3136C80.5748 11.5056 80.5748 12.096 80.8388 12.294L81.3788 12.5892C82.0952 12.9828 82.0952 13.374 82.0952 14.6868V19.6308C82.0952 21.9228 81.9428 22.2168 80.6912 22.32L79.97 22.38C79.6652 22.5768 79.6652 23.3352 80.0096 23.532C81.4993 23.4594 82.9906 23.4258 84.482 23.4312C86.258 23.4312 87.7772 23.46 89.5976 23.5308C89.9384 23.3352 89.9384 22.5768 89.6324 22.38L88.4204 22.2888C87.17 22.1844 87.0164 21.9216 87.0164 19.6308V14.5872C87.0164 13.344 87.2084 12.6168 87.7436 12.6168" fill="#080C12"/>
<path d="M102.609 22.272L102.119 22.374C101.811 22.668 101.886 23.352 102.266 23.514C103.327 23.4492 104.687 23.418 106.932 23.418C109.128 23.418 110.527 23.4492 111.698 23.514C112.079 23.388 112.157 22.6008 111.848 22.374L111.285 22.2708C110.303 22.1088 109.584 21.9396 109.053 21.5208C108.101 20.7684 104.766 16.3104 104.094 15.2628C103.898 15.0012 103.818 14.8068 103.818 14.7048C103.818 14.6088 103.857 14.4792 104.043 14.2776C104.576 13.8252 105.155 13.3248 106.589 12.3756C107.607 11.694 108.41 11.3676 109.129 11.2332L110.336 11.0028C110.607 10.7472 110.57 10.0152 110.183 9.8568C107.953 10.1544 104.807 10.3152 103.023 10.3152H102.119C101.741 10.452 101.699 11.1672 102.039 11.4612L102.99 11.598C103.327 11.6244 103.705 11.754 103.705 11.922C103.705 12.1188 103.523 12.4764 102.798 13.2252L101.211 14.8404C100.451 15.5904 99.6545 15.7548 99.0101 15.7548C98.5985 15.7548 98.4761 15.6564 98.4761 15.2952V5.0124C98.4761 2.946 98.5241 1.5684 98.5985 0.228C98.4497 0.06 98.1761 0 97.9505 0C96.0137 0.714 93.7085 1.5084 92.1569 1.8276C91.8881 2.0292 91.8881 2.6208 92.1569 2.8068L92.8001 3.1428C93.5549 3.5376 93.5549 3.8964 93.5549 5.214V19.6188C93.5549 21.9108 93.4025 22.1736 92.0333 22.3092L91.3133 22.374C91.0145 22.566 91.0145 23.322 91.3517 23.514C92.8924 23.4453 94.4344 23.4133 95.9765 23.418C97.7213 23.418 99.3101 23.4492 100.529 23.514C100.865 23.322 100.865 22.566 100.565 22.374L99.9617 22.3092C98.6297 22.1736 98.4761 21.9096 98.4761 19.6188V17.7228C98.4761 17.0952 98.6681 16.9356 98.9297 16.9356C99.3101 16.9356 99.6149 17.0676 99.8849 17.418L102.571 20.964C102.875 21.3528 103.213 21.876 103.213 22.0176C103.213 22.1388 102.99 22.2 102.609 22.2708" fill="#080C12"/>
</svg>
