<svg width="128" height="25" viewBox="0 0 128 25" fill="none" xmlns="http://www.w3.org/2000/svg">
<g clip-path="url(#clip0)">
<path fill-rule="evenodd" clip-rule="evenodd" d="M19.5163 2.64653C16.6069 6.85082 9.27174 17.4044 9.27174 17.4044L0.360903 4.82375C0.360903 4.82375 -0.451129 3.66006 0.360903 2.34086C0.360903 2.34086 0.629789 1.75633 1.32889 1.33268C1.66769 1.1289 2.11403 0.962658 2.67869 0.919757C2.67869 0.919757 3.41544 0.860768 4.57164 1.3434C4.57164 1.3434 10.1376 3.59571 19.5163 2.64653Z" fill="#080C12"/>
<path fill-rule="evenodd" clip-rule="evenodd" d="M28.029 0.94172C28.029 0.94172 28.4162 0.947083 28.8894 1.09724C29.4165 1.26348 30.008 1.60132 30.3468 2.336C30.3468 2.336 31.0029 3.53723 30.1693 4.8189L17.6823 23.0786C17.6823 23.0786 16.9348 24.2799 15.5205 24.4086C15.5205 24.4086 14.1492 24.5587 13.2242 22.9017L9.19629 17.2977C9.19629 17.2977 16.5476 6.8567 19.5107 2.64703C19.5107 2.64703 23.9689 2.0357 26.9535 1.13478C26.9535 1.13478 27.6687 0.914907 28.029 0.94172Z" fill="#080C12"/>
<path fill-rule="evenodd" clip-rule="evenodd" d="M15.4297 24.4087H6.0456C5.71218 24.3926 5.44867 24.221 5.44867 24.221C4.84099 23.6204 5.2497 22.9769 5.2497 22.9769C5.2497 22.9769 7.91166 19.1318 9.19153 17.3032L13.9616 23.7169C13.967 23.7169 14.4133 24.3872 15.4297 24.4087Z" fill="#080C12"/>
<path d="M43.7644 16.944L39.0858 6.83008H36.7842L42.662 19.3625L42.3501 20.0543C41.6833 21.5451 40.8013 22.2638 39.6558 22.2638C39.0697 22.2638 38.3813 22.1243 37.8974 21.9044L37.1337 21.5559V23.7652L37.4994 23.8886C38.2307 24.1299 39.0643 24.2801 39.7204 24.2801C42.8287 24.2801 44.044 21.454 44.5603 20.2474L50.2606 6.83544H48.002L43.7644 16.944Z" fill="#080C12"/>
<path d="M56.7027 6.58789C53.0512 6.58789 50.2979 9.34426 50.2979 13.0016C50.2979 16.6428 53.0297 19.3884 56.6543 19.3884C59.0904 19.3884 61.3114 18.1229 62.3224 16.1602L62.5752 15.6722L60.7683 14.7981L60.5262 15.2539C59.8056 16.6106 58.3375 17.4472 56.7027 17.4472C54.5839 17.4472 52.8899 16.0369 52.4866 14.0151H62.7365L62.8117 13.57C62.844 13.377 62.8655 13.0499 62.8655 12.7817C62.8709 9.19414 60.2789 6.58789 56.7027 6.58789ZM52.4489 12.1061C52.7985 10.0307 54.5301 8.52916 56.6812 8.52916C58.8 8.52916 60.4402 10.0039 60.7521 12.1061H52.4489Z" fill="#080C12"/>
<path d="M67.023 1.19873H64.958V19.1474H67.023V1.19873Z" fill="#080C12"/>
<path d="M72.1695 1.19873H70.1045V19.1474H72.1695V1.19873Z" fill="#080C12"/>
<path d="M80.6606 6.56689C77.0092 6.56689 74.2559 9.33401 74.2559 13.002C74.2559 16.6433 77.0092 19.389 80.6606 19.389C84.3284 19.389 87.0926 16.6433 87.0926 13.002C87.0926 9.33401 84.3284 6.56689 80.6606 6.56689ZM85.0008 13.002C85.0008 15.5118 83.1448 17.3994 80.6822 17.3994C78.2085 17.3994 76.3424 15.5064 76.3424 13.002C76.3424 10.4816 78.2085 8.57788 80.6822 8.57788C83.1448 8.57788 85.0008 10.4816 85.0008 13.002Z" fill="#080C12"/>
<path d="M104.289 6.83008L100.897 15.7213L97.7986 6.83008H96.0941L92.9962 15.7267L89.5758 6.83008H87.3066L92.2006 19.148H93.8679L96.9544 10.2675L100.004 19.148H101.67L106.564 6.83008H104.289Z" fill="#080C12"/>
<path d="M107.421 16.6543C106.63 16.6543 105.99 17.2817 105.99 18.0593C105.99 18.8583 106.604 19.4643 107.421 19.4643C108.195 19.4643 108.803 18.8476 108.803 18.0593C108.803 17.2871 108.179 16.6543 107.421 16.6543Z" fill="#080C12"/>
<path d="M120.375 8.36828C119.266 7.23141 117.745 6.58789 116.061 6.58789C112.534 6.58789 109.872 9.34426 109.872 13.0016C109.872 16.6428 112.523 19.3884 116.035 19.3884C117.723 19.3884 119.256 18.7343 120.375 17.5813V19.1472H122.44V6.82921H120.375V8.36828ZM120.353 12.9266C120.353 15.4738 118.54 17.3989 116.131 17.3989C113.77 17.3989 111.985 15.5059 111.985 13.0016C111.985 10.4812 113.776 8.57742 116.153 8.57742C118.552 8.57742 120.353 10.4489 120.353 12.9266Z" fill="#080C12"/>
<path d="M127.592 6.83008H125.5V19.148H127.592V6.83008Z" fill="#080C12"/>
<path d="M128.001 4.30928C128.001 3.51024 127.35 2.88281 126.522 2.88281C125.704 2.88281 125.064 3.51024 125.064 4.30928C125.064 5.13512 125.704 5.784 126.522 5.784C127.361 5.784 128.001 5.15121 128.001 4.30928Z" fill="#080C12"/>
</g>
<defs>
<clipPath id="clip0">
<rect width="128" height="23.4937" fill="white" transform="translate(0 0.91748)"/>
</clipPath>
</defs>
</svg>
