<svg width="22" height="22" viewBox="0 0 22 22" fill="none" xmlns="http://www.w3.org/2000/svg">
<g clip-path="url(#clip0)">
<path d="M12.9742 4.01262C11.8661 4.01262 10.9679 3.11436 10.9679 2.00631C10.9679 0.898255 11.8661 0 12.9742 0C14.0822 0 14.9805 0.898255 14.9805 2.00631C14.9805 3.11436 14.0822 4.01262 12.9742 4.01262Z" fill="#E25241"/>
<path d="M5.71392 10.889C5.72879 10.6107 6.04707 9.93698 6.11858 9.7982C6.93463 8.20894 7.78856 6.63704 8.69063 5.09416C10.0561 2.75718 13.6871 4.87961 12.3156 7.22402C12.2756 7.29235 12.237 7.3621 12.197 7.43149C13.03 8.49394 14.2844 8.88904 15.8474 8.72548C16.8076 8.62493 17.0352 9.72916 16.5498 10.336V22.0003H15.8471V10.7113C13.9498 10.9099 12.3531 10.3632 11.182 9.22644C10.7047 10.0931 10.2395 10.9665 9.78708 11.8449L12.7556 14.6853C13.1465 15.0591 13.304 15.6153 13.1692 16.1382C12.8059 17.5452 12.0996 20.2833 11.9077 21.0423C11.5194 22.5809 9.08609 22.1412 9.47588 20.5952C9.83983 19.1511 10.3624 17.4878 10.7277 16.0444C10.7323 16.0271 10.738 16.0122 10.743 15.9956C10.7277 16.0444 8.04488 13.643 8.04488 13.643C7.92026 16.0494 7.79812 18.6044 7.67491 20.8313C7.58534 22.4227 5.11667 22.2988 5.20588 20.7031C5.37511 17.6369 5.54434 13.9535 5.71392 10.889Z" fill="#E25241"/>
</g>
<defs>
<clipPath id="clip0">
<rect width="22" height="22" fill="white" transform="matrix(-1 0 0 1 22 0)"/>
</clipPath>
</defs>
</svg>
