<svg width="21" height="26" viewBox="0 0 21 26" fill="none" xmlns="http://www.w3.org/2000/svg">
<path d="M19.9303 17.197L19.932 17.1935L17.8081 15.1322L17.8064 15.1357L17.7031 15.0303L10.8114 8.3125L5.61461 16.075L0.773277 23.274C0.253249 24.0465 1.01841 25.2669 1.8466 24.9859L19.7096 18.9195C20.3715 18.6948 20.4135 17.722 19.9303 17.197Z" fill="url(#paint0_linear)"/>
<path d="M13.7623 11.2031L9.48828 17.5593L19.3706 18.9534C20.2373 19.0763 20.5875 17.8367 19.8818 17.1501L13.7623 11.2031Z" fill="url(#paint1_linear)"/>
<path d="M0.375012 8.70569L9.48863 17.5586L19.4672 2.7218C19.9855 1.95275 19.2256 0.734196 18.3991 1.00811L0.551858 6.93054C-0.0977388 7.14651 -0.195793 8.15085 0.375012 8.70569Z" fill="url(#paint2_linear)"/>
<defs>
<linearGradient id="paint0_linear" x1="11.3978" y1="18.2922" x2="-7.56234" y2="40.7107" gradientUnits="userSpaceOnUse">
<stop offset="0.00186302" stop-color="#0096E3"/>
<stop offset="0.2137" stop-color="#00A8FF"/>
<stop offset="0.3791" stop-color="#24B4FF"/>
<stop offset="0.5807" stop-color="#4CC2FF"/>
</linearGradient>
<linearGradient id="paint1_linear" x1="13.0235" y1="4.71893" x2="19.3033" y2="48.7631" gradientUnits="userSpaceOnUse">
<stop offset="0.013" stop-color="#26B2FA"/>
<stop offset="0.4657" stop-color="#36B5F7"/>
</linearGradient>
<linearGradient id="paint2_linear" x1="1.76597" y1="9.24984" x2="26.3098" y2="6.59148" gradientUnits="userSpaceOnUse">
<stop stop-color="#21A7EB"/>
<stop offset="1" stop-color="#18AAF5"/>
</linearGradient>
</defs>
</svg>
